<svg width="599" height="599" viewBox="0 0 599 599" fill="none" xmlns="http://www.w3.org/2000/svg">
<circle cx="299.5" cy="299.5" r="299.5" fill="white"/>
<path d="M117.21 244.153V435.663C117.21 442.45 117.21 445.843 119.111 448.107C119.412 448.465 119.743 448.796 120.101 449.097C122.363 451 125.754 451 132.535 451H333.508C348.702 451 356.3 451 358.623 446.857C358.97 446.238 359.235 445.577 359.41 444.889C360.582 440.285 355.08 435.042 344.076 424.556L143.104 233.046C132.739 223.17 127.557 218.231 123.103 219.497C122.436 219.687 121.795 219.962 121.197 220.315C117.21 222.67 117.21 229.831 117.21 244.153Z" fill="#183E43"/>
<path d="M375.783 448.971L377.378 173.178C377.421 165.684 368.157 162.142 363.195 167.755L231.544 316.702L119.485 437.216C114.639 442.427 118.369 450.912 125.483 450.858L375.783 448.971Z" fill="#3EB0AC"/>
<path d="M454.278 273.288C569.645 273.288 459.034 400.762 376.887 451H125.066C117.218 451 114.001 441.043 120.424 436.53C154.202 412.801 208.042 376.775 264.819 344.292C330.99 306.434 400.953 273.288 454.278 273.288Z" fill="#F9E596"/>
</svg>
