<svg width="610" height="1575" viewBox="0 0 610 1575" fill="none" xmlns="http://www.w3.org/2000/svg">
<g clip-path="url(#clip0_727_167)">
<rect y="207" width="130" height="400" rx="65" fill="#9176CB"/>
<path fill-rule="evenodd" clip-rule="evenodd" d="M61.7283 329.379C58.6218 325.17 56.6717 320.142 57.4359 314.714C59.6378 299.073 81.2752 304.061 84.9765 312.291C88.6777 320.522 86.7649 340.609 81.1653 341.642C78.9322 342.054 74.3561 340.342 69.8005 337.143L71.309 358.471L53.6823 357.238L61.7283 329.379Z" fill="#915B3C"/>
<path fill-rule="evenodd" clip-rule="evenodd" d="M50.1173 308.944C49.5874 308.34 49.3332 307.513 49.118 306.729C48.8945 305.916 48.6796 305.094 48.5522 304.254C48.2976 302.577 48.4269 300.677 49.6951 299.476C50.7121 298.514 52.1625 298.152 53.4783 298.143C54.3549 298.137 55.242 298.322 56.0586 298.655C56.8689 298.986 57.5457 299.579 58.3261 299.972C58.4813 298.194 58.9165 296.353 59.9259 294.896C60.8972 293.494 62.3402 292.77 63.9334 292.664C65.5686 292.554 67.1414 293.045 68.5366 293.93C68.8858 294.152 69.2311 294.383 69.5589 294.64C69.8335 294.855 70.1167 295.111 70.4493 295.214C70.82 295.329 71.0221 295.124 71.2863 294.866C71.5961 294.564 71.9395 294.302 72.2996 294.075C73.8917 293.067 75.9104 292.749 77.618 293.538C78.4048 293.902 79.1543 294.479 79.6524 295.237C80.0964 295.912 80.3739 296.954 81.0173 297.448C81.2903 297.658 81.5101 297.42 81.7838 297.253C82.1948 297.001 82.5898 296.72 83.005 296.476C83.5883 296.133 84.2109 295.89 84.8667 295.786C85.8268 295.634 87.1288 295.776 87.3124 297.032C87.3813 297.504 87.2688 297.996 87.2033 298.462C87.1133 299.102 87.0215 299.741 86.9207 300.38C86.8443 300.864 86.7577 301.331 86.6323 301.804C86.5653 302.055 86.3785 302.52 86.47 302.784C86.5845 303.113 87.2283 302.975 87.4972 303.005C88.0283 303.064 88.5566 303.195 89.0332 303.457C89.4025 303.66 89.7856 303.948 89.9161 304.397C89.9964 304.672 89.951 304.946 89.8849 305.22C89.8056 305.547 89.8574 305.728 89.8759 306.066C90.6159 305.763 93.1495 305.154 93.3717 306.458C93.4457 306.892 93.1755 307.358 92.9699 307.705C92.6094 308.315 92.1541 308.863 91.6915 309.383C90.7266 310.47 89.6011 311.386 88.4056 312.154C89.6955 312.839 89.921 314.609 88.6956 315.568C88.1545 315.992 87.463 316.046 86.8231 315.972C86.5889 315.945 86.2564 315.831 86.0687 315.859C85.9676 315.874 85.8552 315.951 85.7167 315.951C84.8063 315.949 83.7988 315.659 82.9272 315.397C81.374 314.928 79.9322 314.076 78.7918 312.852C78.4992 312.538 78.2524 312.351 77.8308 312.326C77.4614 312.304 77.0921 312.38 76.7226 312.364C75.745 312.32 74.8985 311.782 74.0145 311.401C73.8734 312.621 73.4305 313.945 72.8527 315.011C72.3816 315.881 71.5197 315.952 70.6762 315.972C67.9789 316.037 65.3095 315.567 62.6262 315.383C65.1824 316.152 67.8493 316.582 70.3752 317.453C71.5169 317.846 70.5736 318.568 70.038 319.077C69.1562 319.915 68.4695 320.982 67.9653 322.121C66.8105 320.376 64.6411 319.127 62.6159 319.497C60.3783 319.905 58.6224 322.77 59.8787 325.006C60.6081 326.303 62.0484 326.885 63.2375 327.504C62.2112 328.432 61.8771 329.885 61.2148 331.082C60.8881 331.672 60.4412 332.334 59.7913 332.503C59.5508 332.565 59.2748 332.552 59.076 332.731C58.8298 332.952 58.7566 333.213 58.4491 333.397C57.222 334.128 55.3986 333.938 54.4357 332.804C53.5648 331.778 53.9151 330.276 54.7665 329.357C53.5559 328.75 51.3309 327.923 51.9624 326.015C49.2729 325.646 43.0191 320.806 46.8694 317.857C44.9579 316.593 43.3217 313.716 44.7695 311.383C45.8844 309.585 48.232 308.912 50.1173 308.944Z" fill="#191847"/>
<path fill-rule="evenodd" clip-rule="evenodd" d="M39.2134 421.389L93.9206 512.85L134.935 590.172H143.769L75.0488 421.389L39.2134 421.389Z" fill="#784931"/>
<path fill-rule="evenodd" clip-rule="evenodd" d="M129.534 586.602C128.71 588.801 128.298 590.446 128.298 591.538C128.298 592.866 128.52 594.803 128.962 597.35C130.502 597.35 144.344 597.35 170.487 597.35C171.566 593.783 170.943 591.857 168.618 591.572C166.293 591.288 164.362 591.031 162.824 590.802L143.524 582.198C143.152 582.032 142.717 582.199 142.552 582.57C142.549 582.577 142.546 582.583 142.543 582.589L141.303 585.599C139.15 586.603 137.401 587.105 136.056 587.105C134.963 587.105 133.453 586.664 131.526 585.78L131.526 585.78C130.787 585.442 129.913 585.766 129.574 586.505C129.56 586.537 129.546 586.57 129.534 586.602Z" fill="#E4E4E4"/>
<path fill-rule="evenodd" clip-rule="evenodd" d="M123.544 577.79L140.581 572.637C133.117 550.323 123.968 525.767 113.136 498.97C102.303 472.172 90.6691 446.312 78.234 421.389H30.1165C43.9416 452.916 58.5981 481.561 74.086 507.327C89.5739 533.092 106.06 556.58 123.544 577.79Z" fill="#5C63AB"/>
<path fill-rule="evenodd" clip-rule="evenodd" d="M35.6186 421.389C30.4553 453.529 20.4966 494.591 19.5568 495.859C18.9302 496.703 -3.6258 504.262 -48.1113 518.534L-46.203 526.324C6.84586 518.67 34.7981 512.731 37.6537 508.509C41.9371 502.175 63.3246 452.137 71.6084 421.389H35.6186Z" fill="#915B3C"/>
<path fill-rule="evenodd" clip-rule="evenodd" d="M-32.4744 511.8L-29.1131 524.346C10.5644 527.826 34.8756 525.312 43.8207 516.803C52.7657 508.294 62.9605 476.489 74.4049 421.389H28.5219C21.271 466.509 17.2173 490.015 16.3608 491.91C15.5042 493.804 -0.774153 500.434 -32.4744 511.8Z" fill="#8991DC"/>
<path fill-rule="evenodd" clip-rule="evenodd" d="M104.923 414.134L125.056 435.195C131.03 437.994 135.9 441.024 139.664 444.285C140.498 445.366 141.376 447.413 137.309 446.368C133.242 445.324 128.917 444.409 128.1 445.715C127.284 447.021 129.482 449.143 127.998 450.837C127.008 451.967 123.945 448.157 118.809 439.406L97.5814 425.87L104.923 414.134ZM1.5082 388.605L13.8696 393.169C-6.13607 419.964 -16.8155 434.114 -18.1688 435.618C-21.2137 439.003 -20.0252 446.278 -19.7584 450.053C-25.2452 450.447 -21.8965 442.811 -28.8565 443.413C-35.2092 443.963 -41.0088 447.039 -45.876 440.881C-46.4743 440.124 -46.6675 438.024 -44.1143 437.366C-37.7536 435.729 -28.1946 432.29 -26.4716 430.64C-24.122 428.39 -14.7954 414.378 1.5082 388.605Z" fill="#915B3C"/>
<path fill-rule="evenodd" clip-rule="evenodd" d="M109.985 416.93C112.998 417.241 116.148 418.305 119.412 420.086C121.018 420.962 121.61 422.975 120.733 424.581C120.224 425.514 119.332 426.105 118.359 426.264C118.937 426.866 119.522 427.466 120.114 428.064L112.179 438.946C89.7849 422.375 68.3354 409.076 61.3834 387.012C59.0501 379.606 64.3074 356.776 65.4485 348.335L73.7637 346.522C80.6333 370.772 91.4825 394.787 109.985 416.93Z" fill="#69A1AC"/>
<path fill-rule="evenodd" clip-rule="evenodd" d="M24.4677 421.462C46.8206 427.985 64.7624 431.149 78.2929 430.953C79.9693 430.929 81.1307 423.925 80.7153 421.884C74.2465 390.088 70.3805 366.965 74.0218 346.314C71.675 347.058 67.8847 346.563 62.6508 344.83C44.4598 363.565 33.5174 386.812 24.4677 421.462Z" fill="#191847"/>
<path fill-rule="evenodd" clip-rule="evenodd" d="M19.6122 424.23C18.9665 423.366 18.7555 422.203 19.1522 421.113L19.9076 419.037C20.4196 417.631 21.7849 416.781 23.2061 416.861C23.6412 415.817 24.0416 414.773 24.404 413.731C27.4653 404.929 26.5309 395.604 28.1866 386.9C14.7737 394.792 1.28612 410.124 -12.2762 432.897L-25.2596 426.452C-24.3948 424.603 -23.5155 422.782 -22.6217 420.987C-24.0439 419.81 -25.1652 415.369 -23.7146 414.915C-22.2164 414.446 -20.6738 414.202 -19.0904 414.177C0.134057 378.573 25.5438 354.535 57.139 342.065L59.6613 342.509L65.3848 343.519C57.2959 375.196 78.4699 451.203 56.2708 509.013C33.9018 510.024 5.81375 489.653 -26.2006 496.326C-20.8369 472.415 6.44884 448.025 19.6122 424.23L19.6122 424.23Z" fill="#89C5CC"/>
<path fill-rule="evenodd" clip-rule="evenodd" d="M60.0061 343.317L54.2371 354.161L60.2495 364.113L52.2467 369.689L63.7443 400.794L48.5658 369.098L56.4573 363.444L51.1144 354.644L60.0061 343.317Z" fill="black" fill-opacity="0.1"/>
<path fill-rule="evenodd" clip-rule="evenodd" d="M56.9956 410.818C55.3939 410.535 54.3243 409.008 54.6068 407.406C54.8892 405.804 56.4166 404.735 58.0184 405.017C59.6201 405.3 60.6896 406.827 60.4072 408.429C60.1248 410.031 58.5973 411.1 56.9956 410.818ZM57.6804 428.133C56.0787 427.851 55.0091 426.323 55.2916 424.722C55.574 423.12 57.1014 422.05 58.7032 422.333C60.3049 422.615 61.3744 424.143 61.092 425.744C60.8096 427.346 59.2821 428.416 57.6804 428.133ZM55.465 444.937C53.8632 444.655 52.7937 443.127 53.0762 441.526C53.3586 439.924 54.886 438.854 56.4878 439.137C58.0895 439.419 59.159 440.947 58.8766 442.548C58.5942 444.15 57.0667 445.22 55.465 444.937Z" fill="black" fill-opacity="0.4"/>
</g>
<g clip-path="url(#clip1_727_167)">
<rect x="156" width="130" height="400" rx="65" fill="url(#paint0_linear_727_167)"/>
<path fill-rule="evenodd" clip-rule="evenodd" d="M186.1 90.5558C182.072 86.8553 179.067 82.0829 178.768 76.3587C177.908 59.8654 201.113 60.6678 206.554 68.3774C211.995 76.087 214.04 97.0867 208.498 99.2644C206.288 100.133 201.249 99.2888 195.935 96.9139L201.739 118.505L183.4 120.757L186.1 90.5558Z" fill="#915B3C"/>
<path fill-rule="evenodd" clip-rule="evenodd" d="M194.933 60.1486C192.468 60.0491 185.926 60.5756 184.726 60.7231C183.959 60.8173 183.149 61.0946 182.609 60.4461C182.166 59.9151 182.182 58.9231 181.989 58.2675C181.765 57.5059 181.488 56.761 181.208 56.0183C180.414 53.9049 179.363 51.9305 178.009 50.1219C175.468 46.7287 172.052 44.2459 167.978 43.0573C163.479 41.745 158.592 41.9181 154.041 42.8551C149.171 43.8577 144.918 46.0282 140.461 48.1265C136.214 50.1261 131.649 51.2684 126.933 51.1256C122.182 50.9819 118.347 48.8869 114.119 46.9708C109.79 45.0091 104.991 43.9678 100.276 44.9216C95.8742 45.8121 92.0038 48.1499 88.6301 51.0523C85.4736 53.7678 82.9755 56.8753 81.8507 60.9553C80.6406 65.3442 81.2052 69.9293 84.4919 73.2732C89.2557 78.1203 97.0498 78.568 103.376 77.6516C107.035 77.1217 110.556 76.0096 113.87 74.366C118.29 72.1739 121.944 68.9298 125.991 66.1648C127.891 64.8672 129.882 63.7487 132.003 62.8586C134.061 61.9946 136.128 61.4605 138.216 62.5116C140.426 63.6235 142.42 64.7374 144.862 65.3036C147.204 65.8468 149.634 66.013 152.02 65.7013C156.662 65.0949 161.064 63.0849 165.458 61.5611C169.041 60.3186 172.881 59.0472 176.726 59.3466C178.331 59.4715 180.698 59.8456 181.463 61.4031C172.158 64.2964 169.866 76.5247 173.609 84.8351C175.63 89.3206 185.003 93.7031 188.086 90.8361C190.04 89.0197 188.488 87.1406 187.48 85.898C185.55 83.5184 184.592 80.2751 187.357 78.114C189.741 76.25 192.9 79.5932 192.951 79.5829C193.652 79.4402 199.342 75.2311 202.935 69.6673C207.122 69.4033 207.416 66.5854 206.148 64.466C204.881 62.3466 198.34 60.2866 194.933 60.1486Z" fill="#191847"/>
<path fill-rule="evenodd" clip-rule="evenodd" d="M189.68 183.7L217.88 280.876L231.144 353.837H244.457L231.168 183.7H189.68Z" fill="#784931"/>
<path fill-rule="evenodd" clip-rule="evenodd" d="M177.007 183.7C178.975 234.182 178.198 261.716 177.758 266.303C177.318 270.89 174.817 301.607 157.781 355.376H171.627C194.19 303.794 202.066 273.076 204.654 266.303C207.242 259.53 214.885 231.995 226.043 183.7H177.007Z" fill="#915B3C"/>
<path fill-rule="evenodd" clip-rule="evenodd" d="M189.074 183.7C196.41 217.138 209.097 270.514 227.135 343.829H246.607C248.045 268.579 241.927 219.052 231.332 183.7H189.074Z" fill="#69A1AC"/>
<path fill-rule="evenodd" clip-rule="evenodd" d="M176.908 183.7C178.835 234.182 173.841 283.917 158.371 344.615H179.146C201.75 293.802 217.951 244.313 229.024 183.7H176.908Z" fill="#C5CFD6"/>
<path fill-rule="evenodd" clip-rule="evenodd" d="M155.806 365.384L156.57 353.067C161.044 354.375 166.646 353.862 173.379 351.527C180.618 356.655 189.731 360.156 200.717 362.031C201.556 362.174 202.119 362.969 201.976 363.808C201.967 363.862 201.955 363.916 201.94 363.969L200.883 367.694H173.379H157.334L155.806 365.384Z" fill="#191847"/>
<path fill-rule="evenodd" clip-rule="evenodd" d="M228.173 365.384L228.937 353.067C233.41 354.375 239.013 353.862 245.745 351.527C252.984 356.655 262.097 360.156 273.084 362.031C273.922 362.174 274.486 362.969 274.343 363.808C274.333 363.862 274.321 363.916 274.306 363.969L273.25 367.694H245.745H229.701L228.173 365.384Z" fill="#191847"/>
<path fill-rule="evenodd" clip-rule="evenodd" d="M253.255 166.223L280.57 179.717C287.441 180.331 293.31 181.566 298.175 183.425C299.381 184.189 300.976 185.885 296.606 186.314C292.237 186.743 287.66 187.39 287.324 188.966C286.988 190.541 289.907 191.839 289.055 194.036C288.486 195.5 284.114 192.851 275.938 186.089L250.239 180.381L253.255 166.223ZM160.509 183.208L176.364 180.477C172.15 213.782 169.823 231.469 169.384 233.539C168.396 238.196 173.276 244.163 175.491 247.441C170.728 250.667 169.769 242.001 163.781 246.186C158.316 250.005 154.672 255.822 147.045 252.791C146.107 252.418 144.834 250.617 146.803 248.687C151.706 243.878 158.565 235.767 159.262 233.372C160.214 230.105 160.629 213.384 160.509 183.208Z" fill="#915B3C"/>
<path fill-rule="evenodd" clip-rule="evenodd" d="M193.811 108.789L200.168 106.508C228.198 123.232 245.306 161.838 278.892 177.965L273.285 188.125C220.431 190.842 198.929 143.863 193.811 108.789Z" fill="#1F28CF"/>
<path fill-rule="evenodd" clip-rule="evenodd" d="M179.759 196.215C206.046 191.58 225.382 188.17 237.767 185.987C240.418 185.519 239.243 181.78 238.519 179.916C230.167 158.406 208.668 137.422 203.073 105.693L185.878 106.019C175.963 130.718 176.009 158.966 179.759 196.215Z" fill="#DDE3E9"/>
<path fill-rule="evenodd" clip-rule="evenodd" d="M168.843 131.582C166.29 131.312 164.078 130.022 162.208 127.712C154.147 117.755 155.284 111.29 161.468 108.141C167.651 104.991 174.205 108.077 184.618 106.241C185.185 106.141 185.71 106.085 186.193 106.073L191.484 105.449C215.493 153.732 225.63 186.983 221.894 205.202L176.237 213.252C174.645 220.037 172.992 225.8 171.279 230.543L158.839 232.736C150.993 195.086 154.328 161.368 168.843 131.582Z" fill="#2B44FF"/>
<path fill-rule="evenodd" clip-rule="evenodd" d="M181.567 185.341C185.121 197.102 188.993 205.41 193.181 210.264L176.237 213.252C178.095 205.338 179.872 196.034 181.567 185.341L181.567 185.341Z" fill="black" fill-opacity="0.1"/>
</g>
<g clip-path="url(#clip2_727_167)">
<rect x="450" y="547" width="130" height="400" rx="65" transform="rotate(-180 450 547)" fill="url(#paint1_linear_727_167)"/>
<path fill-rule="evenodd" clip-rule="evenodd" d="M423.642 214.925C426.283 209.369 427.406 203.126 425.306 197.031C419.254 179.47 395.395 190.083 392.969 200.415C390.543 210.747 397.259 233.506 403.955 233.442C406.625 233.417 411.524 230.414 416.065 225.698L419.109 250.658L439.181 245.28L423.642 214.925Z" fill="#D4A181"/>
<path fill-rule="evenodd" clip-rule="evenodd" d="M416.357 215.528C420.126 219.639 424.533 222.314 427.972 221.393C434.504 219.642 436.809 209.664 434.293 200.274C434.204 199.944 434.11 199.618 434.01 199.296C442.19 202.187 450.02 210.106 459.163 207.657C471.603 204.324 469.82 177.91 452.441 182.567C440.622 185.734 435.269 189.015 430.942 192.906C429.207 190.384 427.073 188.446 424.792 187.304C424.215 186.924 423.408 186.628 422.412 186.421C421.798 186.271 421.179 186.181 420.561 186.154C417.242 185.853 412.655 186.243 407.72 187.382C406.799 187.595 405.9 187.826 405.028 188.072C403.78 183.469 399.041 180.741 394.431 181.976C389.812 183.213 387.071 187.961 388.309 192.58C389.506 197.047 393.986 199.757 398.457 198.812C401.187 198.914 404.58 198.617 408.238 197.895C408.24 199.301 408.45 200.842 408.901 202.526C409.3 204.013 409.887 205.546 410.618 207.067C411.149 205.932 412.029 205.048 413.087 204.765C416.045 203.972 418.757 205.854 419.449 208.438C420.328 211.718 419.07 214.597 416.357 215.528Z" fill="#191847"/>
<path fill-rule="evenodd" clip-rule="evenodd" d="M464.783 321.82L433.067 431.111L418.15 513.168H403.177L418.123 321.82H464.783Z" fill="#BA8B72"/>
<path fill-rule="evenodd" clip-rule="evenodd" d="M479.037 321.82C476.824 378.596 477.696 409.563 478.192 414.722C478.687 419.88 481.499 454.427 500.66 514.9H485.087C459.711 456.887 450.853 422.34 447.943 414.722C445.032 407.104 436.437 376.137 423.887 321.82H479.037Z" fill="#D4A181"/>
<path fill-rule="evenodd" clip-rule="evenodd" d="M465.464 321.82C457.215 359.428 442.946 419.458 422.658 501.912H400.759C399.142 417.281 406.022 361.58 417.938 321.82H465.464Z" fill="#69A1AC"/>
<path fill-rule="evenodd" clip-rule="evenodd" d="M479.148 321.82C476.98 378.596 482.597 434.531 499.996 502.796H476.631C451.208 445.649 432.988 389.99 420.535 321.82H479.148Z" fill="#89C5CC"/>
<path fill-rule="evenodd" clip-rule="evenodd" d="M421.492 526.156L420.633 512.302C415.602 513.774 409.301 513.197 401.729 510.571C393.587 516.338 383.339 520.275 370.982 522.384C370.039 522.545 369.405 523.44 369.566 524.382C369.577 524.443 369.59 524.504 369.607 524.564L370.795 528.753H401.729H419.773L421.492 526.156Z" fill="#191847"/>
<path fill-rule="evenodd" clip-rule="evenodd" d="M402.832 273.147L370.378 262.156C364.426 257.179 358.776 253.495 353.429 251.104C351.862 250.752 349.245 250.833 352.379 254.649C355.513 258.465 358.638 262.62 357.652 264.139C356.666 265.659 353.312 264.37 352.244 266.795C351.531 268.411 357.115 269.782 368.994 270.906L393.971 286.805L402.832 273.147ZM358.891 294.997L344.631 290.147C341.583 283.528 338.787 280.42 336.242 280.824C334.134 280.261 339.074 288.433 335.245 288.324C331.417 288.215 321.217 283.098 319.904 284.734C317.96 287.154 321.101 292.978 324.058 295.629C329.585 300.584 333.669 301.892 343.36 302.838C348.426 303.333 354.123 305.112 360.451 308.173L358.891 294.997Z" fill="#D4A181"/>
<path fill-rule="evenodd" clip-rule="evenodd" d="M416.609 266.994C406.223 268.713 392.013 268.961 375.613 262.199L372.098 276.138C384.052 284.441 399.821 290.215 412.268 287.658C422.077 285.643 425.012 272.831 416.609 266.994Z" fill="#2026A2"/>
<path fill-rule="evenodd" clip-rule="evenodd" d="M406.303 290.172C395.782 294.857 376.756 294.875 349.226 290.224C345.144 304.651 343.845 314.651 345.328 320.227C369.597 327.917 389.557 329.734 405.309 327.308C406.452 336.707 409.148 345.367 414.382 352.791C425.144 368.054 468.257 344.56 484.202 344.876C488.326 311.835 467.421 302.389 463.87 282.338C459.982 260.381 436.389 229.689 433.794 230.146L410.135 234.318C411.787 251.319 408.476 270.961 406.303 290.172Z" fill="#1F28CF"/>
</g>
<g clip-path="url(#clip3_727_167)">
<rect x="480" y="315" width="130" height="400" rx="65" fill="#9176CB"/>
<path fill-rule="evenodd" clip-rule="evenodd" d="M542.244 397.858C538.253 393.173 535.551 387.431 536.003 380.997C537.303 362.459 563.109 366.537 568.129 375.893C573.149 385.25 572.552 408.983 566.064 410.656C563.477 411.323 557.966 409.689 552.356 406.308L555.877 431.217H535.087L542.244 397.858Z" fill="#B28B67"/>
<path fill-rule="evenodd" clip-rule="evenodd" d="M558.96 377.25C556.139 378.828 554.131 381.786 551.714 385.665C551.125 385.433 550.484 385.306 549.813 385.306C546.943 385.306 544.616 387.633 544.616 390.504C544.616 391.961 545.216 393.278 546.182 394.222C544.979 395.919 543.631 397.693 542.087 399.522C536.323 396.064 532.037 385.986 537.54 376.257C542.274 356.77 569.103 368.866 574.265 365.579C575.393 372.651 571.754 378.353 558.96 377.25Z" fill="#191847"/>
<path fill-rule="evenodd" clip-rule="evenodd" d="M534.25 506.421L576.767 614.032L605.283 705.009H616.544L572.949 506.421L534.25 506.421Z" fill="#997659"/>
<path fill-rule="evenodd" clip-rule="evenodd" d="M525.689 506.421C525.236 544.236 518.633 595.148 517.578 597.506C516.875 599.077 492.597 619.061 444.746 657.458L452.501 665.758C508.962 632.837 538.499 614.182 541.112 609.791C545.031 603.205 557.79 542.598 568.034 506.421H525.689Z" fill="#B28B67"/>
<path fill-rule="evenodd" clip-rule="evenodd" d="M600.672 700.809C599.703 703.396 599.219 705.331 599.219 706.616C599.219 708.178 599.479 710.457 599.999 713.454C601.811 713.454 618.097 713.454 648.857 713.454C650.127 709.257 649.394 706.991 646.658 706.656C643.923 706.321 641.651 706.019 639.841 705.749L617.133 695.626C616.696 695.431 616.183 695.627 615.989 696.064C615.985 696.072 615.982 696.079 615.979 696.087L614.519 699.628C611.987 700.809 609.929 701.4 608.346 701.4C607.06 701.4 605.283 700.881 603.017 699.841L603.017 699.841C602.147 699.443 601.118 699.825 600.72 700.694C600.702 700.732 600.687 700.77 600.672 700.809Z" fill="#E4E4E4"/>
<path fill-rule="evenodd" clip-rule="evenodd" d="M562.836 695.638L616.375 689.828L576.696 506.421H528.744L562.836 695.638Z" fill="#69A1AC"/>
<path fill-rule="evenodd" clip-rule="evenodd" d="M455.82 644.068L490.938 685.636C527.926 645.237 549.491 618.877 555.631 606.556C561.772 594.234 567.291 560.856 572.191 506.421H518.206C515.529 554.31 513.725 579.369 512.794 581.598C511.862 583.827 492.871 604.65 455.82 644.068Z" fill="#89C5CC"/>
<path fill-rule="evenodd" clip-rule="evenodd" d="M612.407 495.95L637.865 520.625C645.272 523.764 651.341 527.231 656.073 531.024C657.137 532.299 658.295 534.742 653.289 533.649C648.283 532.556 642.968 531.63 642.027 533.247C641.086 534.865 643.859 537.343 642.12 539.46C640.96 540.871 637.062 536.382 630.424 525.993L603.951 510.486L612.407 495.95ZM487.917 473.617L507.596 473.691C492.607 521.938 484.651 547.199 483.727 549.475C481.648 554.595 486.048 562.393 487.93 566.584C481.801 569.309 482.454 559.218 474.722 562.792C467.665 566.054 462.297 571.964 454.143 566.966C453.141 566.351 452.042 564.037 454.696 562.229C461.309 557.724 470.837 549.84 472.125 547.245C473.881 543.706 479.145 519.163 487.917 473.617Z" fill="#B28B67"/>
<path fill-rule="evenodd" clip-rule="evenodd" d="M547.882 418.152L555.653 416.828C567.895 459.823 630.794 489.13 634.655 505.203C636.071 511.097 631.801 514.076 634.007 515.872L623.906 523.218C622.195 521.236 618.545 524.863 610.922 522.326C603.3 519.788 547.882 469.062 547.882 418.152Z" fill="#DB2721"/>
<path fill-rule="evenodd" clip-rule="evenodd" d="M560.954 423.868C560.058 480.79 593.177 495.31 585.8 518.145C579.708 537.002 521.4 557.272 511.31 538.789C507.226 531.306 505.372 522.257 505.162 512.419C502.583 519.978 500.544 526.484 499.044 531.94C496.455 541.351 486.422 542.847 486.422 546.472L473.202 542.847C474.099 537.921 467.867 535.523 469.538 524.519C477.025 475.215 497.14 439.477 529.885 417.303L530.232 412.383C530.369 410.476 532.023 409.037 533.931 409.167L558.396 410.867C560.305 410.996 561.745 412.651 561.612 414.56C561.612 414.561 561.612 414.562 561.609 414.563L560.954 423.868Z" fill="#FF4133"/>
</g>
<g clip-path="url(#clip4_727_167)">
<rect y="637" width="130" height="400" rx="65" fill="#9176CB"/>
<path fill-rule="evenodd" clip-rule="evenodd" d="M43.9912 715.343C45.8995 710.219 46.4101 704.606 44.0786 699.372C37.3609 684.293 17.0596 695.538 15.7122 704.872C14.3648 714.207 22.073 733.837 27.9963 733.261C30.3585 733.032 34.4627 729.994 38.1178 725.468L42.7466 747.33L60.1001 741.013L43.9912 715.343Z" fill="#B28B67"/>
<path fill-rule="evenodd" clip-rule="evenodd" d="M17.7481 698.299C18.0592 697.918 18.7087 697.114 19.064 696.78C19.1478 696.7 19.6646 695.948 19.6857 695.947C20.2791 695.933 22.0492 696.034 22.3876 696.555C22.4236 696.591 22.4583 696.624 22.4907 696.653C22.851 696.968 23.1971 697.3 23.5357 697.639C24.279 698.385 24.9801 699.193 25.6623 699.999C26.991 701.568 28.2473 703.212 29.4583 704.877C30.6912 706.571 31.8498 708.318 33.0583 710.031C34.7974 712.495 36.7202 714.816 38.4537 717.281C39.5606 718.855 40.4657 720.526 40.9957 722.367C41.0024 722.389 41.0094 722.411 41.0155 722.433C41.018 722.443 41.0201 722.452 41.0226 722.461C41.102 722.745 41.1728 723.033 41.2338 723.325C41.2852 723.575 41.3368 723.826 41.3861 724.078C40.2219 722.979 39.1674 721.684 38.1088 720.476C38.0052 720.358 37.9037 720.237 37.8032 720.116C37.5231 719.895 37.2403 719.677 36.9559 719.461C35.1624 718.099 33.3667 716.745 31.6085 715.333C28.4462 712.794 25.2773 710.179 21.8452 708.04C20.8317 707.408 19.8071 706.796 18.7997 706.154C18.2264 705.788 17.6602 705.411 17.1028 705.02C16.7044 704.74 15.0898 703.847 15.2162 702.911C15.2809 702.432 16.941 699.29 17.7481 698.299Z" fill="#2C2C2C"/>
<path fill-rule="evenodd" clip-rule="evenodd" d="M18.9626 696.891C18.6233 697.161 18.5186 696.289 18.79 695.869C20.0472 693.927 26.5054 691.037 32.7121 690.135C36.8701 689.53 42.0932 689.891 46.1156 691.335C49.7417 692.637 53.0066 695.651 55.2972 698.878C57.7022 702.266 59.2875 706.133 60.116 710.204C60.298 711.098 60.32 712.005 60.4704 712.89C60.6399 713.887 60.8798 714.819 60.9064 715.839C60.9226 716.464 60.8044 717.125 60.8492 717.742C60.9001 718.447 61.2259 718.998 61.5949 719.6C62.1961 720.58 62.8484 721.54 63.5968 722.413C64.7206 723.724 65.9313 724.895 66.9394 726.313C68.2808 728.2 73.1828 734.145 72.0929 736.649L38.4571 748.891C38.4631 746.272 40.0158 742.628 39.6303 739.967C39.4032 738.4 38.3894 735.166 38.379 735.039C37.2352 729.538 37.8071 726.504 38.4045 725.261C39.0018 724.018 40.1351 723.29 39.9128 722.482C38.9933 719.137 36.5685 716.495 34.5177 713.807C32.0735 710.605 29.8982 707.203 27.4235 704.025C26.3277 702.618 20.7242 695.486 18.9626 696.891Z" fill="#8991DC"/>
<path fill-rule="evenodd" clip-rule="evenodd" d="M32.1157 696.336C34.8489 699.899 35.9036 701.948 37.6323 707.546L38.2545 707.32C37.5281 701.707 34.7155 697.199 32.8977 696.051L32.1157 696.336ZM52.9125 700.529C52.6364 707.125 52.7914 710.904 47.8801 717.947L48.5196 718.119C53.7205 712.02 54.0164 706.896 53.4967 700.587L52.9125 700.529ZM41.0765 698.227C42.9659 706.759 44.3449 711.523 41.9934 722.463L42.6546 722.429C45.5884 712.58 44.1975 705.92 41.6482 698.07L41.0765 698.227ZM56.0559 720.161L55.3216 719.727C49.1668 724.431 51.5756 728.642 44.482 736.376L45.3744 736.553C51.8849 730.602 51.2076 723.169 56.0559 720.161Z" fill="black" fill-opacity="0.2"/>
<path fill-rule="evenodd" clip-rule="evenodd" d="M83.7341 808.774L26.5578 904.362L-16.3081 985.174H-25.541L46.2813 808.774L83.7341 808.774Z" fill="#997659"/>
<path fill-rule="evenodd" clip-rule="evenodd" d="M-4.40271 972.234L-22.2083 966.848C-14.4072 943.527 -4.84583 917.863 6.47576 889.856C17.7973 861.849 29.9563 834.822 42.9527 808.774H93.2419C78.7928 841.723 63.4748 871.662 47.2879 898.59C31.1009 925.518 13.8708 950.066 -4.40271 972.234Z" fill="#DB2721"/>
<path fill-rule="evenodd" clip-rule="evenodd" d="M87.4919 808.774C92.8883 842.364 103.296 885.28 104.279 886.604C104.934 887.487 128.508 895.387 175.001 910.303L173.007 918.444C117.563 910.445 88.3495 904.239 85.365 899.825C80.8883 893.206 58.5354 840.909 49.8778 808.774H87.4919Z" fill="#B28B67"/>
<path fill-rule="evenodd" clip-rule="evenodd" d="M158.658 903.265L155.145 916.378C113.676 920.015 88.2679 917.387 78.9191 908.494C69.5703 899.601 58.9155 866.361 46.9545 808.774H94.9084C102.487 855.93 106.723 880.498 107.618 882.477C108.514 884.457 125.527 891.386 158.658 903.265Z" fill="#FF4133"/>
<path fill-rule="evenodd" clip-rule="evenodd" d="M16.9209 808.762L-0.524697 833.723C-6.25982 837.584 -10.8131 841.501 -14.1844 845.472C-14.8738 846.721 -15.4521 848.968 -11.4085 847.225C-7.36497 845.481 -3.03352 843.827 -1.97616 845.034C-0.918805 846.241 -2.85261 848.784 -1.0408 850.28C0.167061 851.277 2.72276 846.857 6.62627 837.019L26.4234 819.61L16.9209 808.762ZM116.689 773.251L103.987 778.694C126.343 805.401 138.269 819.498 139.765 820.985C143.131 824.329 142.27 831.956 142.189 835.892C147.955 835.991 144.047 828.246 151.366 828.478C158.046 828.69 164.28 831.556 169.051 824.882C169.638 824.062 169.73 821.868 167.022 821.33C160.276 819.989 150.087 816.958 148.196 815.341C145.618 813.136 135.115 799.106 116.689 773.251Z" fill="#B28B67"/>
<path fill-rule="evenodd" clip-rule="evenodd" d="M47.1609 734.646L38.2551 734.156C34.5201 764.637 25.089 795.688 3.44068 825.581L13.4199 835.453C33.9333 814.732 53.9981 797.53 57.6289 773.713C58.8475 765.72 49.7086 743.131 47.1609 734.646Z" fill="#C5CFD6"/>
<path fill-rule="evenodd" clip-rule="evenodd" d="M96.0206 804.523C73.2303 813.272 54.7719 818.218 40.6454 819.361C38.8952 819.503 37.8899 816.804 38.16 814.717C42.3654 782.218 43.7839 754.464 38.3364 734.134C40.8432 734.647 44.7566 733.775 50.0765 731.521C70.5447 748.492 83.8139 770.701 96.0206 804.523Z" fill="#323337"/>
<path fill-rule="evenodd" clip-rule="evenodd" d="M53.2989 728.775L47.1084 730.434C47.9192 739.225 73.8712 854.264 69.813 895.258L145.753 874.91C134.967 841.243 111.001 803.749 88.6583 772.988C103.12 780.426 118.051 795.593 133.452 818.491L146.706 811.059C124.023 768.707 93.3786 741.321 54.7745 728.902C54.6595 728.758 54.5451 728.615 54.4311 728.472L53.8833 728.619C53.6473 728.544 53.411 728.471 53.1744 728.397L53.2989 728.775Z" fill="#DDE3E9"/>
</g>
<g clip-path="url(#clip5_727_167)">
<rect x="160" y="430" width="130" height="400" rx="65" fill="#9176CB"/>
<path fill-rule="evenodd" clip-rule="evenodd" d="M274.611 628.582C273.089 649.274 175.04 710.196 174.468 711.905C174.214 712.665 184.387 736.679 204.987 783.948L196.416 787.266C164.819 737.205 149.832 709.507 151.454 704.172C153.778 696.535 179.136 671.412 227.53 628.803L274.611 628.582Z" fill="#B28B67"/>
<path fill-rule="evenodd" clip-rule="evenodd" d="M202.731 773.273L188.738 778.347C159.231 745.183 147.665 717.819 149.774 703.877C151.179 694.582 176.45 669.501 225.586 628.633L275.614 628.633C273.907 676.553 183.028 712.087 181.813 714.129C180.597 716.171 192.559 736.171 202.731 773.273Z" fill="#2F3676"/>
<path fill-rule="evenodd" clip-rule="evenodd" d="M208.163 782.365C209.913 784.411 211.001 786.022 211.429 787.198C211.95 788.628 212.471 790.802 212.994 793.72C211.334 794.324 196.422 799.752 168.257 810.003C165.695 806.583 165.611 804.263 168.004 803.045C170.398 801.827 172.378 800.793 173.944 799.943L191.364 783.105C191.699 782.781 192.233 782.79 192.557 783.126C192.563 783.131 192.568 783.137 192.574 783.143L195.09 785.899C197.803 786.137 199.884 785.992 201.334 785.464C202.511 785.036 203.965 783.968 205.694 782.261L205.694 782.261C206.358 781.606 207.426 781.613 208.081 782.277C208.11 782.305 208.137 782.335 208.163 782.365Z" fill="#E4E4E4"/>
<path fill-rule="evenodd" clip-rule="evenodd" d="M263.337 628.582L307.015 733.035L349.944 821.342H339.816L229.005 628.582H263.337Z" fill="#997659"/>
<path fill-rule="evenodd" clip-rule="evenodd" d="M346.068 802.997L323.562 807.201C306.162 781.717 233.338 677.225 225.354 628.582H275.455C302.119 663.746 329.481 777.092 346.068 802.997Z" fill="#5C63AB"/>
<path fill-rule="evenodd" clip-rule="evenodd" d="M247.711 526.939C250.39 521.608 251.603 515.59 249.672 509.667C244.111 492.601 220.666 502.506 218.106 512.458C215.546 522.409 221.655 544.509 228.179 544.547C230.781 544.562 235.611 541.732 240.124 537.241L242.615 561.414L262.272 556.513L247.711 526.939Z" fill="#B28B67"/>
<path fill-rule="evenodd" clip-rule="evenodd" d="M217.232 516.857C217.143 515.672 217.304 514.291 217.42 513.12C217.57 511.611 218.007 510.174 218.538 508.791C219.537 506.186 220.9 503.719 222.541 501.545C225.539 497.573 229.882 494.63 234.725 494.027C237.169 493.722 239.697 494.045 242.03 495.049C244.138 495.957 246.338 497.518 248.667 497.089C251.202 496.622 252.946 493.868 254.611 492.02C256.489 489.937 258.614 488.23 261.145 487.142C265.385 485.319 269.905 485.764 273.847 488.598C278.042 491.614 281.796 496.635 280.931 502.233C280.77 503.273 280.459 504.194 279.893 505.035C279.373 505.805 278.51 506.702 278.479 507.734C278.446 508.831 279.638 509.939 280.202 510.781C281.012 511.986 281.751 513.279 281.971 514.754C282.331 517.177 281.394 519.809 280.198 521.759C278.981 523.743 277.224 525.144 275.21 526.091C273.865 526.723 272.457 527.237 270.993 527.491C270.267 527.617 269.588 527.577 268.857 527.593C268.147 527.609 267.815 527.88 267.336 528.388C265.109 530.747 262.423 532.114 259.3 532.625C256.664 533.055 253.532 533.177 250.988 531.949C248.162 530.584 247.539 527.886 247.374 524.879C246.862 525.311 245.293 525.891 245.972 524.508C246.242 523.96 246.917 523.596 247.341 523.208C247.835 522.756 248.315 522.211 248.632 521.595C249.913 519.109 247.07 515.407 244.65 515.283C241.054 515.1 241.474 519.971 239.391 521.778C238.193 522.816 236.52 522.222 235.25 521.506C233.549 520.546 232.18 519.055 230.932 517.501C229.905 516.221 228.918 514.909 227.879 513.64C227.394 513.047 225.821 511.421 226.184 510.524C223.672 510.648 221.252 512.298 219.512 514.105C218.794 514.852 218.291 515.603 218.072 516.66C218.025 516.887 217.963 517.541 217.703 517.632C217.219 517.801 217.254 517.155 217.232 516.857Z" fill="#191847"/>
<path fill-rule="evenodd" clip-rule="evenodd" d="M194.102 621.275L167.524 641.416C160.257 643.504 154.2 646.05 149.352 649.053C148.213 650.123 146.851 652.272 151.644 651.821C156.437 651.37 161.498 651.11 162.189 652.727C162.88 654.345 160.009 656.343 161.386 658.518C162.304 659.967 166.456 656.22 173.842 647.275L200.309 635.81L194.102 621.275ZM297.476 620.15L279.841 620.527C291.341 655.317 297.544 673.775 298.449 675.901C300.486 680.682 296.482 688.089 294.783 692.061C300.584 694.524 299.805 685.043 307.124 688.278C313.805 691.23 318.944 696.701 326.518 691.866C327.45 691.272 328.443 689.078 325.921 687.421C319.638 683.292 310.56 676.033 309.308 673.613C307.601 670.313 303.657 652.492 297.476 620.15Z" fill="#B28B67"/>
<path fill-rule="evenodd" clip-rule="evenodd" d="M246.07 547.384L238.751 546.266C212.08 570.014 201.739 614.923 168.963 639.19L177.123 648.903C234.577 640.805 247.897 586.014 246.07 547.384Z" fill="#E87613"/>
<path fill-rule="evenodd" clip-rule="evenodd" d="M279.476 638.089C250.215 638.599 228.69 638.975 214.904 639.216C211.953 639.267 212.435 635.018 212.824 632.871C217.316 608.095 236.068 581.144 235.454 545.998L254.029 542.766C269.865 567.153 275.723 597.415 279.476 638.089Z" fill="#DDE3E9"/>
<path fill-rule="evenodd" clip-rule="evenodd" d="M277.709 566.595C280.401 565.774 282.511 563.932 284.041 561.069C290.636 548.727 288.06 542.04 280.746 539.955C273.432 537.869 267.023 542.539 255.432 542.742C254.801 542.753 254.224 542.802 253.701 542.89L247.876 543.323C232.132 600.033 228.175 637.755 236.006 656.488L286.829 655.601C289.963 662.536 292.947 668.364 295.782 673.086L309.63 672.844C310.202 630.888 299.561 595.472 277.709 566.595Z" fill="#FF9B21"/>
<path fill-rule="evenodd" clip-rule="evenodd" d="M275.256 626.82C273.89 640.155 271.461 649.859 267.968 655.931L286.829 655.601C283.174 647.513 279.317 637.919 275.256 626.82Z" fill="black" fill-opacity="0.1"/>
</g>
<g clip-path="url(#clip6_727_167)">
<rect x="320" y="577" width="130" height="400" rx="65" fill="#9176CB"/>
<path fill-rule="evenodd" clip-rule="evenodd" d="M343.843 702.377C340.513 698.469 338.26 693.68 338.637 688.313C339.722 672.85 361.246 676.252 365.433 684.056C369.62 691.861 369.123 711.657 363.711 713.052C361.553 713.608 356.956 712.245 352.277 709.425L355.214 730.202H337.873L343.843 702.377Z" fill="#B28B67"/>
<path fill-rule="evenodd" clip-rule="evenodd" d="M355.549 675.062C353.264 674.687 347.11 674.429 345.975 674.429C345.25 674.429 344.464 674.595 344.034 673.929C343.683 673.384 343.811 672.462 343.706 671.829C343.585 671.094 343.411 670.368 343.236 669.644C342.738 667.584 341.984 665.625 340.93 663.785C338.951 660.334 336.053 657.63 332.394 656.057C328.353 654.32 323.78 653.922 319.434 654.274C314.783 654.651 310.572 656.187 306.181 657.632C301.996 659.009 297.613 659.551 293.236 658.878C288.826 658.201 285.493 655.811 281.774 653.542C277.966 651.22 273.614 649.701 269.112 650.05C264.91 650.376 261.037 652.111 257.562 654.429C254.311 656.597 251.629 659.207 250.114 662.879C248.485 666.829 248.487 671.165 251.166 674.656C255.049 679.716 262.259 681.024 268.257 680.894C271.726 680.819 275.133 680.186 278.409 679.034C282.777 677.497 286.552 674.893 290.638 672.78C292.556 671.789 294.538 670.975 296.616 670.388C298.632 669.819 300.618 669.557 302.444 670.776C304.375 672.064 306.106 673.33 308.315 674.137C310.435 674.91 312.68 675.343 314.938 675.326C319.331 675.292 323.663 673.923 327.93 673.006C331.409 672.258 335.133 671.513 338.68 672.232C340.161 672.532 342.323 673.151 342.858 674.69C333.859 676.32 330.324 687.45 332.861 695.619C334.23 700.029 342.461 705.184 345.661 702.866C347.689 701.397 346.458 699.469 345.661 698.196C344.136 695.759 343.614 692.628 346.436 690.931C348.871 689.467 351.431 692.943 351.48 692.939C352.149 692.886 357.931 689.616 361.915 684.844C365.845 685.077 366.441 682.486 365.503 680.366C364.565 678.247 358.707 675.58 355.549 675.062Z" fill="#191847"/>
<path d="M330.648 915.896C361.375 915.896 386.284 892.119 386.284 862.789C386.284 833.459 361.375 809.682 330.648 809.682C299.921 809.682 275.012 833.459 275.012 862.789C275.012 892.119 299.921 915.896 330.648 915.896Z" fill="#C5CFD6"/>
<path fill-rule="evenodd" clip-rule="evenodd" d="M435.784 907.702C426.527 887.212 419.831 869.37 417.144 859.957C412.543 843.839 409.042 829.656 408.157 824.359C406.047 811.729 424.387 810.993 426.811 817.27C430.48 826.771 436.885 857.986 444.582 905.136L435.784 907.702ZM328.399 843.399C336.893 840.041 366.639 829.534 380.985 826.562C385.108 825.708 389.103 824.914 392.86 824.197C404.026 822.065 409.811 842.209 399.057 843.757C372.274 847.612 334.306 851.592 331.056 852.039C326.502 852.665 323.061 845.509 328.399 843.399Z" fill="#B28B67"/>
<path fill-rule="evenodd" clip-rule="evenodd" d="M399.714 818.654L353.769 795.265V790.174H359.233C403.682 801.5 426.396 808.759 427.374 811.95C427.384 811.984 427.394 812.018 427.403 812.053C427.425 812.082 427.447 812.112 427.469 812.141C436.277 824.256 441.553 883.401 443.285 887.83L426.405 890.348C419.948 866.404 399.289 849.724 399.838 821.047C399.69 820.206 399.652 819.408 399.714 818.654Z" fill="#1F28CF"/>
<path fill-rule="evenodd" clip-rule="evenodd" d="M357.586 832.544C353.382 831.702 349.511 830.951 346.199 830.37C324.802 826.617 318.562 815.164 322.251 790.174H361.675C368.115 792.024 401.583 806.059 418.947 813.524C430.44 818.464 426.817 836.275 420.309 840.91C420.273 841.195 420.156 841.388 419.948 841.474C384.937 855.985 357.241 848.371 347.989 850.804L343.709 837.304L357.586 832.544Z" fill="#2B44FF"/>
<path fill-rule="evenodd" clip-rule="evenodd" d="M331.303 841.253C329.009 841.472 327.381 841.817 326.418 842.286C325.247 842.858 323.633 843.886 321.577 845.372C322.239 846.731 328.194 858.94 339.442 882.001C343.053 881.418 344.484 880.04 343.734 877.866C342.985 875.693 342.381 873.879 341.921 872.424L341.207 851.698C341.194 851.299 340.859 850.987 340.46 851.001C340.454 851.001 340.447 851.001 340.44 851.002L337.252 851.202C335.44 849.736 334.245 848.409 333.666 847.222C333.195 846.258 332.935 844.736 332.885 842.657L332.886 842.657C332.866 841.859 332.204 841.228 331.406 841.247C331.372 841.248 331.337 841.25 331.303 841.253Z" fill="#E4E4E4"/>
<path fill-rule="evenodd" clip-rule="evenodd" d="M431.571 903.904C430.763 906.061 430.359 907.676 430.359 908.747C430.359 910.05 430.576 911.952 431.01 914.451C432.521 914.451 446.106 914.451 471.763 914.451C472.822 910.95 472.21 909.06 469.929 908.781C467.647 908.502 465.752 908.25 464.242 908.025L445.301 899.58C444.936 899.418 444.509 899.582 444.347 899.946C444.344 899.952 444.341 899.959 444.339 899.965L443.121 902.919C441.009 903.904 439.292 904.397 437.972 904.397C436.899 904.397 435.417 903.963 433.527 903.097L433.527 903.097C432.801 902.764 431.943 903.083 431.611 903.808C431.596 903.84 431.583 903.871 431.571 903.904Z" fill="#E4E4E4"/>
<path fill-rule="evenodd" clip-rule="evenodd" d="M398.566 770.388L424.748 758.89C429.334 754.32 433.763 750.847 438.034 748.47C439.311 748.063 441.493 747.94 439.165 751.34C436.837 754.741 434.541 758.422 435.471 759.614C436.402 760.805 439.096 759.49 440.161 761.428C440.87 762.72 436.328 764.265 426.534 766.064L406.926 781.098L398.566 770.388ZM292.72 773.555L307.526 776.493C292.636 804.242 284.65 818.949 283.57 820.614C281.139 824.361 283.407 831.226 284.245 834.842C278.989 836.066 281.062 828.154 274.41 829.806C268.338 831.314 263.19 835.183 257.529 829.965C256.833 829.323 256.323 827.318 258.696 826.289C264.609 823.726 273.344 818.928 274.76 817.065C276.692 814.525 282.678 800.021 292.72 773.555Z" fill="#B28B67"/>
<path fill-rule="evenodd" clip-rule="evenodd" d="M347.768 718.159L354.016 717.087C367.624 730.288 373.178 762.003 382.247 766.201C390.822 770.17 402.977 766.33 417.425 761.144L421.849 771.03C408.722 785.232 380.755 797.231 369.419 790.381C351.295 779.429 347.111 740.314 347.768 718.159Z" fill="#DB2721"/>
<path fill-rule="evenodd" clip-rule="evenodd" d="M320.531 796.676C345.583 796.676 364.011 796.676 375.814 796.676C378.341 796.676 377.865 793.029 377.499 791.188C373.285 769.945 356.833 747.046 356.833 716.807L340.887 714.306C327.697 735.519 323.136 761.636 320.531 796.676Z" fill="#DDE3E9"/>
<path fill-rule="evenodd" clip-rule="evenodd" d="M315.018 775.169C303.748 795.497 294.275 810.133 286.599 819.075L275.011 816.806C282.476 770.514 304.091 736.347 339.858 714.306H342.736L346.172 714.306C360.487 763.105 364.434 795.619 358.012 811.85H308.248C309.036 799.974 311.56 787.414 315.018 775.169H315.018Z" fill="#FF4133"/>
</g>
<g clip-path="url(#clip7_727_167)">
<rect x="480" y="745" width="130" height="400" rx="65" fill="#9176CB"/>
<path fill-rule="evenodd" clip-rule="evenodd" d="M517.374 833.018C520.942 828.831 523.356 823.7 522.952 817.95C521.79 801.384 498.729 805.028 494.243 813.39C489.757 821.751 490.29 842.96 496.088 844.455C498.4 845.051 503.325 843.591 508.338 840.569L505.191 862.83H523.771L517.374 833.018Z" fill="#B28B67"/>
<path fill-rule="evenodd" clip-rule="evenodd" d="M504.832 803.752C507.281 803.351 513.874 803.075 515.09 803.075C515.867 803.075 516.709 803.253 517.169 802.539C517.546 801.955 517.408 800.967 517.52 800.289C517.651 799.501 517.836 798.724 518.024 797.948C518.558 795.742 519.365 793.642 520.495 791.671C522.615 787.973 525.72 785.077 529.641 783.391C533.97 781.53 538.869 781.104 543.526 781.481C548.509 781.885 553.02 783.53 557.725 785.078C562.209 786.554 566.905 787.134 571.594 786.414C576.319 785.688 579.889 783.127 583.874 780.697C587.954 778.208 592.617 776.581 597.44 776.955C601.942 777.304 606.091 779.163 609.814 781.647C613.297 783.97 616.171 786.766 617.794 790.7C619.539 794.932 619.538 799.577 616.667 803.317C612.507 808.739 604.783 810.141 598.357 810.001C594.64 809.921 590.989 809.243 587.48 808.008C582.8 806.362 578.756 803.572 574.377 801.308C572.322 800.246 570.199 799.374 567.972 798.745C565.812 798.135 563.684 797.855 561.728 799.16C559.659 800.541 557.805 801.897 555.438 802.761C553.167 803.59 550.762 804.054 548.343 804.036C543.635 803.999 538.995 802.532 534.423 801.55C530.695 800.749 526.706 799.951 522.905 800.721C521.319 801.042 519.003 801.706 518.43 803.354C528.071 805.101 531.858 817.025 529.14 825.778C527.673 830.502 518.855 836.025 515.426 833.541C513.254 831.968 514.573 829.902 515.426 828.538C517.061 825.927 517.62 822.573 514.595 820.754C511.987 819.186 509.244 822.91 509.192 822.906C508.475 822.85 502.28 819.346 498.012 814.233C493.801 814.483 493.162 811.706 494.168 809.436C495.173 807.165 501.449 804.308 504.832 803.752Z" fill="#191847"/>
<path fill-rule="evenodd" clip-rule="evenodd" d="M538.754 927.082C537.358 946.133 447.436 1002.22 446.911 1003.8C446.678 1004.49 456.008 1026.6 474.901 1070.12L467.04 1073.18C438.062 1027.09 424.317 1001.59 425.805 996.676C427.936 989.645 451.193 966.514 495.575 927.285L538.754 927.082Z" fill="#B28B67"/>
<path fill-rule="evenodd" clip-rule="evenodd" d="M472.832 1060.3L459.998 1064.97C432.936 1034.43 422.329 1009.24 424.263 996.405C425.553 987.847 448.729 964.755 493.792 927.129L539.674 927.129C538.108 971.248 454.762 1003.96 453.647 1005.84C452.532 1007.72 463.503 1026.14 472.832 1060.3Z" fill="#2F3676"/>
<path fill-rule="evenodd" clip-rule="evenodd" d="M477.793 1068.62C479.398 1070.5 480.396 1071.98 480.789 1073.06C481.266 1074.37 481.744 1076.36 482.223 1079.04C480.702 1079.59 467.025 1084.57 441.194 1093.97C438.845 1090.83 438.768 1088.71 440.963 1087.59C443.158 1086.47 444.974 1085.52 446.411 1084.74L462.386 1069.3C462.694 1069 463.184 1069.01 463.481 1069.32C463.486 1069.33 463.491 1069.33 463.496 1069.34L465.804 1071.86C468.292 1072.08 470.2 1071.95 471.53 1071.47C472.61 1071.07 473.943 1070.09 475.529 1068.53L475.529 1068.53C476.137 1067.93 477.118 1067.93 477.718 1068.54C477.744 1068.57 477.769 1068.6 477.793 1068.62Z" fill="#E4E4E4"/>
<path fill-rule="evenodd" clip-rule="evenodd" d="M528.414 927.082L568.472 1023.25L607.843 1104.55H598.554L496.928 927.082H528.414Z" fill="#997659"/>
<path fill-rule="evenodd" clip-rule="evenodd" d="M608.399 1100.8C609.265 1103.11 609.698 1104.84 609.698 1105.99C609.698 1107.38 609.466 1109.42 609.001 1112.1C607.381 1112.1 592.827 1112.1 565.338 1112.1C564.204 1108.35 564.859 1106.32 567.303 1106.02C569.748 1105.72 571.779 1105.45 573.396 1105.21L593.689 1096.17C594.08 1095.99 594.537 1096.17 594.712 1096.56C594.715 1096.56 594.717 1096.57 594.72 1096.58L596.025 1099.74C598.288 1100.8 600.127 1101.33 601.542 1101.33C602.691 1101.33 604.279 1100.86 606.304 1099.93L606.304 1099.93C607.081 1099.58 608 1099.92 608.357 1100.7C608.372 1100.73 608.386 1100.76 608.399 1100.8Z" fill="#E4E4E4"/>
<path fill-rule="evenodd" clip-rule="evenodd" d="M604.288 1087.66L583.648 1091.53C567.69 1068.07 500.902 971.867 493.579 927.082H539.528C563.982 959.457 589.076 1063.81 604.288 1087.66Z" fill="#5C63AB"/>
<path fill-rule="evenodd" clip-rule="evenodd" d="M458.744 905.884L430.694 893.566C425.78 888.669 421.035 884.948 416.459 882.401C415.091 881.966 412.753 881.834 415.247 885.477C417.741 889.12 420.201 893.064 419.204 894.341C418.208 895.618 415.321 894.208 414.18 896.285C413.42 897.669 418.286 899.325 428.779 901.252L449.787 917.359L458.744 905.884ZM572.147 909.277L556.284 912.425C572.237 942.155 580.792 957.913 581.95 959.696C584.554 963.71 582.124 971.066 581.226 974.94C586.858 976.251 584.637 967.774 591.764 969.544C598.269 971.159 603.784 975.305 609.85 969.714C610.596 969.027 611.142 966.878 608.599 965.776C602.265 963.031 592.906 957.89 591.388 955.894C589.319 953.172 582.905 937.633 572.147 909.277Z" fill="#B28B67"/>
<path fill-rule="evenodd" clip-rule="evenodd" d="M513.169 849.926L506.475 848.778C491.895 862.922 485.945 896.901 476.229 901.398C467.042 905.651 454.019 901.536 438.54 895.979L433.799 906.571C447.864 921.787 477.827 934.643 489.972 927.304C509.39 915.57 513.873 873.662 513.169 849.926Z" fill="#DB2721"/>
<path fill-rule="evenodd" clip-rule="evenodd" d="M542.35 934.05C515.509 934.05 495.766 934.05 483.12 934.05C480.414 934.05 480.924 930.141 481.315 928.169C485.83 905.41 503.457 880.876 503.457 848.478L520.541 845.799C534.672 868.526 539.559 896.508 542.35 934.05Z" fill="#DDE3E9"/>
<path fill-rule="evenodd" clip-rule="evenodd" d="M548.257 911.006C560.331 932.786 570.48 948.466 578.704 958.047L591.119 955.616C583.122 906.019 559.963 869.413 521.643 845.799H518.559L514.878 845.799C499.541 898.081 495.312 932.917 502.193 950.306H555.509C554.666 937.582 551.961 924.126 548.257 911.006H548.257Z" fill="#FF4133"/>
</g>
<g clip-path="url(#clip8_727_167)">
<rect y="1067" width="130" height="400" rx="65" fill="url(#paint2_linear_727_167)"/>
<path fill-rule="evenodd" clip-rule="evenodd" d="M94.594 1177.24C98.084 1173.14 100.446 1168.12 100.051 1162.5C98.9141 1146.29 76.3512 1149.86 71.9622 1158.04C67.5732 1166.22 68.0948 1186.97 73.7671 1188.43C76.0292 1189.01 80.8482 1187.59 85.7528 1184.63L82.6743 1206.41H100.852L94.594 1177.24Z" fill="#B28B67"/>
<path fill-rule="evenodd" clip-rule="evenodd" d="M107.976 1157.1C108.564 1156.52 108.884 1155.69 109.161 1154.9C109.449 1154.08 109.728 1153.26 109.919 1152.4C110.301 1150.7 110.304 1148.74 109.089 1147.42C108.114 1146.36 106.652 1145.88 105.302 1145.78C104.403 1145.71 103.48 1145.83 102.618 1146.12C101.762 1146.4 101.025 1146.96 100.196 1147.31C100.164 1145.47 99.8499 1143.55 98.9186 1141.98C98.0223 1140.47 96.5935 1139.63 94.9662 1139.4C93.2959 1139.17 91.6466 1139.57 90.1513 1140.37C89.777 1140.58 89.4061 1140.79 89.0512 1141.03C88.754 1141.23 88.4451 1141.47 88.0964 1141.55C87.7077 1141.65 87.515 1141.42 87.2623 1141.14C86.9661 1140.8 86.6324 1140.51 86.2793 1140.25C84.7177 1139.1 82.6689 1138.63 80.8598 1139.32C80.0262 1139.64 79.2157 1140.18 78.6502 1140.92C78.1461 1141.58 77.7865 1142.63 77.0908 1143.09C76.7955 1143.28 76.587 1143.02 76.3182 1142.83C75.9144 1142.55 75.5294 1142.23 75.1207 1141.95C74.5467 1141.55 73.9252 1141.26 73.2597 1141.11C72.2854 1140.88 70.9389 1140.93 70.6604 1142.21C70.5558 1142.69 70.636 1143.2 70.6698 1143.69C70.7161 1144.35 70.7645 1145.01 70.8221 1145.67C70.8658 1146.18 70.9211 1146.66 71.016 1147.16C71.0666 1147.42 71.225 1147.91 71.1121 1148.17C70.9711 1148.5 70.3202 1148.31 70.0421 1148.33C69.4928 1148.35 68.9413 1148.45 68.4334 1148.68C68.0398 1148.86 67.626 1149.13 67.4599 1149.58C67.3578 1149.86 67.3847 1150.14 67.4329 1150.43C67.4908 1150.77 67.4246 1150.95 67.3814 1151.3C66.6437 1150.93 64.0873 1150.13 63.7657 1151.45C63.6586 1151.89 63.9025 1152.39 64.0885 1152.76C64.4149 1153.41 64.8427 1154 65.2801 1154.57C66.1924 1155.75 67.2816 1156.78 68.4534 1157.65C67.0804 1158.26 66.722 1160.06 67.9108 1161.13C68.4356 1161.61 69.1413 1161.71 69.8034 1161.68C70.0457 1161.67 70.395 1161.58 70.5857 1161.62C70.6883 1161.64 70.7982 1161.73 70.9403 1161.74C71.8747 1161.8 72.9294 1161.58 73.8428 1161.37C75.4703 1161 77.0111 1160.23 78.2693 1159.06C78.5921 1158.75 78.8587 1158.58 79.2932 1158.59C79.6739 1158.59 80.0474 1158.69 80.4277 1158.7C81.4341 1158.73 82.3415 1158.24 83.276 1157.91C83.3332 1159.17 83.6927 1160.56 84.2092 1161.7C84.6303 1162.62 85.5097 1162.76 86.3738 1162.84C89.1372 1163.1 91.9104 1162.81 94.6773 1162.81C91.9989 1163.42 89.2311 1163.67 86.5765 1164.38C85.3765 1164.7 86.2928 1165.51 86.8059 1166.07C87.6508 1167 88.2789 1168.14 88.7146 1169.34C90.0249 1167.64 92.3408 1166.51 94.3926 1167.04C96.6596 1167.62 98.2559 1170.68 96.8063 1172.89C95.9646 1174.17 94.4448 1174.66 93.1801 1175.21C94.1667 1176.23 94.4053 1177.75 94.9991 1179.03C95.292 1179.66 95.7031 1180.37 96.358 1180.59C96.6004 1180.67 96.8845 1180.67 97.0757 1180.87C97.3125 1181.12 97.3689 1181.39 97.6713 1181.6C98.878 1182.44 100.763 1182.37 101.833 1181.28C102.8 1180.29 102.548 1178.72 101.74 1177.72C103.026 1177.18 105.369 1176.49 104.858 1174.49C107.644 1174.3 114.41 1169.79 110.67 1166.48C112.722 1165.32 114.608 1162.49 113.289 1159.99C112.274 1158.07 109.913 1157.21 107.976 1157.1Z" fill="#191847"/>
<path fill-rule="evenodd" clip-rule="evenodd" d="M133.706 1301.08H75.1935L67.5265 1395H154.627L133.706 1301.08Z" fill="#C5CFD6"/>
<path fill-rule="evenodd" clip-rule="evenodd" d="M133.706 1301.08H115.71L104.939 1395H154.627L133.706 1301.08Z" fill="black" fill-opacity="0.1"/>
<path fill-rule="evenodd" clip-rule="evenodd" d="M8.48499 1284.99C2.24648 1281.25 -8.22026 1286.06 -8.21307 1291.42C-8.19157 1307.45 6.43747 1383 7.20127 1387.77C7.96507 1392.55 16.1473 1393.81 16.6238 1387.79C17.3819 1378.21 18.7905 1345.04 17.3812 1329.68C16.7994 1323.35 16.1729 1317.31 15.5562 1311.93C23.2326 1325.79 35.1045 1345.64 51.1719 1371.47L59.8945 1367.49C53.045 1344.92 47.4284 1328.99 43.0449 1319.69C35.5392 1303.77 28.5014 1290.14 25.5395 1285.34C20.8803 1277.79 12.7702 1280.42 8.48499 1284.99Z" fill="#B28B67"/>
<path fill-rule="evenodd" clip-rule="evenodd" d="M59.2711 1354.95L29.3331 1284.03C22.1611 1272.49 2.05264 1286.38 4.49845 1293.07C10.0512 1308.26 38.2913 1357.44 39.9457 1361.97L59.2711 1354.95Z" fill="#1F28CF"/>
<path fill-rule="evenodd" clip-rule="evenodd" d="M60.9335 1363.01C62.7983 1364.55 64.0115 1365.8 64.573 1366.77C65.2559 1367.96 66.0553 1369.8 66.9714 1372.29C65.5992 1373.09 53.2675 1380.21 29.9761 1393.65C27.1797 1391.03 26.7441 1388.99 28.669 1387.54C30.594 1386.1 32.1826 1384.87 33.4347 1383.88L46.204 1366.28C46.4497 1365.95 46.9233 1365.87 47.2619 1366.12C47.2676 1366.12 47.2734 1366.13 47.279 1366.13L49.9323 1368.17C52.3663 1367.96 54.1827 1367.51 55.3815 1366.82C56.3556 1366.25 57.4736 1365.08 58.7356 1363.31L58.7356 1363.31C59.2199 1362.62 60.1655 1362.46 60.8477 1362.95C60.8771 1362.97 60.9057 1362.99 60.9335 1363.01Z" fill="#E4E4E4"/>
<path fill-rule="evenodd" clip-rule="evenodd" d="M18.5398 1383.94C19.3871 1386.21 19.8108 1387.9 19.8108 1389.02C19.8108 1390.39 19.5833 1392.38 19.1282 1395C17.5438 1395 3.30428 1395 -23.5903 1395C-24.7004 1391.33 -24.0596 1389.35 -21.6678 1389.06C-19.2761 1388.76 -17.2893 1388.5 -15.7073 1388.26L4.14786 1379.41C4.52991 1379.24 4.9777 1379.41 5.14802 1379.8C5.15093 1379.8 5.15375 1379.81 5.15648 1379.82L6.43275 1382.91C8.64687 1383.94 10.4461 1384.46 11.8304 1384.46C12.9551 1384.46 14.5083 1384.01 16.49 1383.1L16.49 1383.1C17.2505 1382.75 18.1496 1383.08 18.4983 1383.84C18.5133 1383.88 18.5271 1383.91 18.5398 1383.94Z" fill="#E4E4E4"/>
<path fill-rule="evenodd" clip-rule="evenodd" d="M-10.3112 1296.87C-10.3112 1316.99 -0.755287 1363.92 -0.749237 1368.35L19.8107 1368.37C16.8014 1326.49 15.7343 1305.32 16.6095 1304.87C17.9222 1304.2 70.4231 1310.11 86.1689 1310.11C108.875 1310.11 118.267 1295.8 119.03 1269.27H74.0506C64.8925 1270.25 17.1229 1279.89 -0.617813 1283.2C-8.2129 1284.62 -10.3112 1291.32 -10.3112 1296.87Z" fill="#2B44FF"/>
<path fill-rule="evenodd" clip-rule="evenodd" d="M67.0432 1222.09L40.7542 1207.69C36.3825 1202.5 32.0751 1198.47 27.8321 1195.59C26.5356 1195.05 24.2683 1194.72 26.3887 1198.49C28.509 1202.25 30.5701 1206.3 29.4898 1207.46C28.4096 1208.62 25.7159 1207 24.4272 1208.93C23.5681 1210.21 28.17 1212.24 38.2329 1215.02L57.3351 1232.51L67.0432 1222.09ZM25.8697 1234.24L14.3221 1227.89C12.7018 1221.73 10.7649 1218.62 8.51146 1218.59C6.78035 1217.78 9.79506 1225.57 6.51342 1224.89C3.23178 1224.22 -4.77776 1218.26 -6.15784 1219.47C-8.19959 1221.26 -6.37904 1226.76 -4.23401 1229.49C-0.224937 1234.6 3.0944 1236.34 11.2987 1238.63C15.5883 1239.83 20.2261 1242.22 25.2121 1245.82L25.8697 1234.24Z" fill="#997659"/>
<path fill-rule="evenodd" clip-rule="evenodd" d="M79.8459 1218.88C70.6378 1218.78 58.3588 1216.84 45.257 1208.52L40.1116 1220C49.1489 1228.96 61.8562 1236.33 72.9673 1236.02C81.7234 1235.78 86.1985 1225.18 79.8459 1218.88Z" fill="#2026A2"/>
<path fill-rule="evenodd" clip-rule="evenodd" d="M67.4474 1237.28C57.6718 1239.72 41.2788 1236.84 18.2684 1228.66C12.5609 1240.46 9.92242 1248.88 10.3531 1253.91C30.0926 1264.22 47.0111 1268.82 60.9497 1269.12C60.5067 1277.39 61.5134 1285.26 64.8952 1292.45C71.8475 1307.24 112.557 1293.55 126.245 1296.24C134.817 1268.4 118.243 1257.09 118.23 1239.28C118.215 1219.77 102.553 1189.75 100.248 1189.75H79.2328C78.0733 1204.64 72.237 1221.06 67.4474 1237.28Z" fill="#1F28CF"/>
</g>
<g clip-path="url(#clip9_727_167)">
<rect x="160" y="860" width="130" height="400" rx="65" fill="url(#paint3_linear_727_167)"/>
<path fill-rule="evenodd" clip-rule="evenodd" d="M178.681 970.579C174.516 965.69 171.697 959.699 172.168 952.985C173.525 933.642 200.451 937.897 205.689 947.66C210.927 957.423 210.304 982.187 203.535 983.932C200.835 984.627 195.084 982.923 189.231 979.395L192.905 1005.39H171.213L178.681 970.579Z" fill="#915B3C"/>
<path fill-rule="evenodd" clip-rule="evenodd" d="M197.121 937.027C194.157 936.123 189.854 935.817 188.044 936.024C189.073 933.557 189.482 930.808 189.149 928.132C188.825 925.532 187.663 923.318 186.589 920.997C186.093 919.928 185.532 918.864 184.695 918.046C183.842 917.213 182.763 916.663 181.631 916.4C180.473 916.132 179.262 916.154 178.102 916.398C177.589 916.506 177.128 916.74 176.625 916.871C176.11 917.004 175.86 916.682 175.486 916.358C174.584 915.577 173.263 915.191 172.122 915.053C170.843 914.898 169.515 915.091 168.295 915.512C167.107 915.921 165.966 916.586 165.107 917.555C164.725 917.986 164.378 918.477 164.152 919.019C164.06 919.241 164.044 919.373 163.823 919.454C163.617 919.53 163.377 919.532 163.165 919.604C161.118 920.297 159.366 921.88 158.413 923.912C157.857 925.097 157.593 927.184 157.666 929.523C157.738 931.862 159.85 937.965 161.825 940.192C163.588 942.179 166.18 943.49 168.681 944.064C167.021 945.962 165.916 948.333 165.099 950.745C164.211 953.364 163.662 956.086 163.459 958.86C163.266 961.495 163.248 964.282 163.866 966.86C164.444 969.272 165.68 971.25 167.743 972.506C168.688 973.081 169.705 973.512 170.728 973.907C171.735 974.296 172.746 974.674 173.802 974.893C175.8 975.306 178.102 975.235 179.642 973.644C180.196 973.071 180.806 972.351 181.211 971.65C181.357 971.398 181.444 971.234 181.268 970.987C181.056 970.692 180.713 970.467 180.441 970.236C178.89 968.921 177.929 967.165 177.687 965.078C177.441 962.961 178.01 960.228 180.069 959.304C182.609 958.164 185.408 959.473 187.666 960.693C188.626 957.306 190.596 954.256 193.686 952.702C197.104 950.983 201.027 950.782 204.539 949.307C205.455 948.923 206.387 948.486 207.061 947.703C207.343 947.376 207.673 946.951 207.786 946.518C207.933 945.95 207.567 945.473 207.283 945.03C205.781 942.679 200.085 937.931 197.121 937.027Z" fill="#191847"/>
<path fill-rule="evenodd" clip-rule="evenodd" d="M165.79 1080.41L232.952 1192.69L283.305 1287.62H294.15L209.784 1080.41L165.79 1080.41Z" fill="#784931"/>
<path fill-rule="evenodd" clip-rule="evenodd" d="M269.32 1272.42L290.236 1266.09C281.072 1238.69 269.841 1208.55 256.542 1175.65C243.243 1142.75 228.96 1111 213.694 1080.41H154.622C171.594 1119.11 189.588 1154.28 208.602 1185.91C227.616 1217.54 247.855 1246.38 269.32 1272.42Z" fill="#DB2721"/>
<path fill-rule="evenodd" clip-rule="evenodd" d="M161.376 1080.41C155.037 1119.86 142.811 1170.27 141.657 1171.83C140.888 1172.87 113.196 1182.15 58.5828 1199.67L60.9255 1209.23C126.052 1199.83 160.368 1192.54 163.874 1187.36C169.133 1179.58 195.39 1118.15 205.559 1080.41H161.376Z" fill="#915B3C"/>
<path fill-rule="evenodd" clip-rule="evenodd" d="M77.7808 1191.4L81.9073 1206.8C130.618 1211.08 160.464 1207.99 171.446 1197.54C182.428 1187.1 194.943 1148.05 208.993 1080.41H152.664C143.763 1135.8 138.786 1164.66 137.734 1166.98C136.683 1169.31 116.698 1177.45 77.7808 1191.4Z" fill="#FF4133"/>
<path fill-rule="evenodd" clip-rule="evenodd" d="M211.56 1024.1L242.932 1006.91C248.149 1000.72 253.29 995.907 258.353 992.479C259.9 991.833 262.606 991.442 260.076 995.933C257.545 1000.42 255.086 1005.26 256.375 1006.65C257.664 1008.03 260.879 1006.1 262.417 1008.4C263.442 1009.93 257.95 1012.35 245.941 1015.66L223.145 1036.53L211.56 1024.1ZM260.695 1038.59L274.476 1031.02C276.409 1023.67 278.721 1019.96 281.41 1019.92C283.476 1018.96 279.878 1028.25 283.794 1027.45C287.711 1026.64 297.269 1019.53 298.916 1020.98C301.353 1023.11 299.18 1029.67 296.62 1032.93C291.836 1039.03 287.875 1041.11 278.084 1043.84C272.965 1045.27 267.43 1048.13 261.48 1052.42L260.695 1038.59Z" fill="#915B3C"/>
<path fill-rule="evenodd" clip-rule="evenodd" d="M196.281 1020.27C207.269 1020.15 221.923 1017.83 237.558 1007.91L243.699 1021.6C232.914 1032.3 217.749 1041.1 204.489 1040.72C194.04 1040.43 188.7 1027.79 196.281 1020.27Z" fill="#2026A2"/>
<path fill-rule="evenodd" clip-rule="evenodd" d="M211.077 1042.23C222.743 1045.14 242.306 1041.71 269.766 1031.94C276.577 1046.03 279.726 1056.07 279.212 1062.07C255.655 1074.38 235.465 1079.86 218.831 1080.23C219.36 1090.1 218.159 1099.49 214.123 1108.07C205.826 1125.71 157.244 1109.37 140.909 1112.59C130.68 1079.37 150.459 1065.87 150.475 1044.61C150.492 1021.33 169.183 985.501 171.933 985.501H197.013C198.396 1003.28 205.361 1022.87 211.077 1042.23Z" fill="#1F28CF"/>
</g>
<g clip-path="url(#clip10_727_167)">
<rect x="320" y="1007" width="130" height="400" rx="65" fill="url(#paint4_linear_727_167)"/>
<path fill-rule="evenodd" clip-rule="evenodd" d="M382.361 1098.29C385.469 1094.64 387.572 1090.17 387.221 1085.16C386.208 1070.73 366.115 1073.9 362.206 1081.19C358.298 1088.47 358.762 1106.95 363.814 1108.25C365.828 1108.77 370.12 1107.5 374.487 1104.87L371.746 1124.26H387.933L382.361 1098.29Z" fill="#57331F"/>
<path fill-rule="evenodd" clip-rule="evenodd" d="M373.678 1086.76C373.058 1095.39 371.419 1099.7 368.761 1099.7C364.773 1099.7 361.389 1097.17 359.639 1097.17C358.363 1097.17 358.648 1098.77 359.494 1099.95C360.191 1100.93 363.589 1101.87 363.589 1103.38C363.589 1104.9 360.905 1103.73 360.905 1104.62C360.905 1106.11 360.433 1108.9 363.01 1108.9C365.619 1108.9 373.098 1107.95 374.38 1104.08C375.207 1101.58 375.742 1096.4 375.985 1088.55C376.143 1088.53 376.304 1088.52 376.467 1088.52C378.702 1088.52 380.514 1090.33 380.514 1092.56C380.514 1093.7 380.047 1094.72 379.295 1095.46C380.231 1096.78 381.281 1098.16 382.483 1099.59C387.001 1096.88 390.353 1088.94 385.937 1081.32C384.716 1077.59 381.952 1075.59 378.688 1074.66C376.044 1073.56 373.299 1073.43 370.982 1074.1C366.44 1074.49 362.385 1075.87 361.235 1076.69C361.235 1080.99 362.068 1082.27 369.185 1082.16C370.934 1083.08 372.278 1084.67 373.678 1086.76Z" fill="#191847"/>
<path fill-rule="evenodd" clip-rule="evenodd" d="M389.232 1180.08L356.127 1263.87L333.924 1334.7H325.156L359.1 1180.08L389.232 1180.08Z" fill="#3D2216"/>
<path fill-rule="evenodd" clip-rule="evenodd" d="M395.899 1180.08C396.251 1209.52 401.392 1249.16 402.214 1251C402.761 1252.22 421.664 1267.78 458.923 1297.68L452.884 1304.14C408.922 1278.51 385.924 1263.98 383.89 1260.57C380.838 1255.44 370.904 1208.25 362.928 1180.08H395.899Z" fill="#57331F"/>
<path fill-rule="evenodd" clip-rule="evenodd" d="M459.73 1295.52C461.758 1296.24 463.155 1296.92 463.921 1297.56C464.853 1298.35 466.082 1299.64 467.609 1301.45C466.702 1302.53 458.551 1312.25 443.156 1330.59C440.017 1329.25 439.033 1327.68 440.202 1325.88C441.371 1324.08 442.329 1322.57 443.073 1321.36L448.4 1302.75C448.503 1302.39 448.876 1302.18 449.234 1302.29C449.241 1302.29 449.247 1302.29 449.253 1302.29L452.095 1303.19C454.067 1302.27 455.45 1301.34 456.242 1300.4C456.886 1299.63 457.465 1298.31 457.98 1296.44L457.98 1296.44C458.177 1295.72 458.92 1295.3 459.638 1295.5C459.669 1295.5 459.7 1295.51 459.73 1295.52Z" fill="#E4E4E4"/>
<path fill-rule="evenodd" clip-rule="evenodd" d="M337.514 1331.43C338.268 1333.45 338.646 1334.96 338.646 1335.96C338.646 1337.17 338.443 1338.95 338.038 1341.28C336.627 1341.28 323.946 1341.28 299.996 1341.28C299.007 1338.01 299.578 1336.25 301.708 1335.99C303.837 1335.73 305.607 1335.49 307.016 1335.28L324.697 1327.4C325.037 1327.25 325.436 1327.4 325.588 1327.74C325.59 1327.75 325.593 1327.75 325.595 1327.76L326.732 1330.52C328.704 1331.44 330.306 1331.9 331.539 1331.9C332.54 1331.9 333.923 1331.49 335.688 1330.68L335.688 1330.68C336.365 1330.37 337.166 1330.67 337.477 1331.35C337.49 1331.37 337.502 1331.4 337.514 1331.43Z" fill="#E4E4E4"/>
<path fill-rule="evenodd" clip-rule="evenodd" d="M366.974 1327.41L325.288 1322.88L356.183 1180.08H393.519L366.974 1327.41Z" fill="#69A1AC"/>
<path fill-rule="evenodd" clip-rule="evenodd" d="M450.3 1287.25L422.956 1319.62C394.156 1288.17 377.365 1267.64 372.584 1258.05C367.803 1248.45 363.505 1222.46 359.69 1180.08H401.725C403.808 1217.37 405.213 1236.88 405.938 1238.61C406.664 1240.35 421.451 1256.56 450.3 1287.25Z" fill="#89C5CC"/>
<path fill-rule="evenodd" clip-rule="evenodd" d="M330.233 1171.72L311.127 1190.35C305.567 1192.73 301.012 1195.34 297.462 1198.21C296.663 1199.17 295.794 1201.02 299.551 1200.19C303.308 1199.37 307.297 1198.67 308.003 1199.89C308.709 1201.11 306.628 1202.98 307.933 1204.58C308.803 1205.65 311.729 1202.26 316.711 1194.41L336.58 1182.7L330.233 1171.72ZM423.665 1154.85L408.896 1154.9C420.145 1191.35 426.116 1210.43 426.809 1212.15C428.37 1216.02 425.068 1221.91 423.655 1225.07C428.255 1227.13 427.765 1219.51 433.568 1222.21C438.864 1224.67 442.893 1229.14 449.013 1225.36C449.765 1224.9 450.59 1223.15 448.598 1221.78C443.635 1218.38 436.483 1212.42 435.517 1210.46C434.199 1207.79 430.249 1189.25 423.665 1154.85Z" fill="#57331F"/>
<path fill-rule="evenodd" clip-rule="evenodd" d="M378.66 1112.95L372.827 1111.95C363.64 1144.43 316.434 1166.56 313.536 1178.71C312.473 1183.16 315.677 1185.41 314.022 1186.76L321.603 1192.31C322.887 1190.82 325.626 1193.56 331.347 1191.64C337.068 1189.72 378.66 1151.41 378.66 1112.95Z" fill="#191847"/>
<path fill-rule="evenodd" clip-rule="evenodd" d="M368.849 1117.27C369.522 1160.26 344.665 1171.23 350.202 1188.48C354.774 1202.73 398.535 1218.04 406.108 1204.08C409.173 1198.42 410.564 1191.59 410.722 1184.16C412.657 1189.87 414.188 1194.78 415.314 1198.9C417.256 1206.01 424.787 1207.14 424.787 1209.88L434.708 1207.14C434.035 1203.42 438.713 1201.61 437.459 1193.3C431.84 1156.05 416.742 1129.06 392.167 1112.31L391.913 1108.67C391.809 1107.18 390.52 1106.06 389.033 1106.17L370.866 1107.44C369.38 1107.54 368.259 1108.83 368.363 1110.32L368.849 1117.27Z" fill="#2F3676"/>
</g>
<g clip-path="url(#clip11_727_167)">
<rect x="480" y="1175" width="130" height="400" rx="65" fill="url(#paint5_linear_727_167)"/>
<path fill-rule="evenodd" clip-rule="evenodd" d="M510.339 1274.16C506.528 1269.69 503.949 1264.21 504.38 1258.06C505.622 1240.37 530.259 1244.26 535.052 1253.19C539.844 1262.12 539.275 1284.78 533.081 1286.38C530.611 1287.02 525.349 1285.46 519.993 1282.23L523.355 1306.01H503.506L510.339 1274.16Z" fill="#B28B67"/>
<path fill-rule="evenodd" clip-rule="evenodd" d="M520.986 1260.02C521.746 1270.6 523.756 1275.89 527.016 1275.89C531.906 1275.89 536.055 1272.79 538.2 1272.79C539.764 1272.79 539.415 1274.75 538.378 1276.2C537.523 1277.4 533.357 1278.55 533.357 1280.41C533.357 1282.26 536.649 1280.83 536.649 1281.93C536.649 1283.75 537.227 1287.17 534.066 1287.17C530.868 1287.17 521.697 1286.01 520.125 1281.26C519.111 1278.2 518.455 1271.85 518.158 1262.21C517.964 1262.19 517.766 1262.18 517.566 1262.18C514.825 1262.18 512.604 1264.4 512.604 1267.14C512.604 1268.53 513.176 1269.79 514.099 1270.69C512.951 1272.31 511.664 1274 510.189 1275.75C504.65 1272.43 500.539 1262.7 505.955 1253.35C507.452 1248.77 510.841 1246.33 514.843 1245.19C518.085 1243.84 521.451 1243.68 524.292 1244.5C529.861 1244.97 534.834 1246.67 536.243 1247.68C536.243 1252.95 535.221 1254.52 526.495 1254.38C524.351 1255.51 522.703 1257.46 520.986 1260.02Z" fill="#191847"/>
<path fill-rule="evenodd" clip-rule="evenodd" d="M496.891 1374.66L526.875 1479.88L548.751 1557.43H564.707L541.46 1374.66H496.891Z" fill="#191847"/>
<path fill-rule="evenodd" clip-rule="evenodd" d="M488.871 1374.66C488.178 1428.89 485.813 1458.47 485.084 1463.39C484.356 1468.32 473.346 1499.67 452.053 1557.43H468.583C495.69 1502.02 510.822 1470.67 513.978 1463.39C517.135 1456.12 526.877 1426.54 541.55 1374.66H488.871Z" fill="#2F3676"/>
<path fill-rule="evenodd" clip-rule="evenodd" d="M450.576 1572.32L451.403 1554.95H468.771C477.006 1560.74 487.758 1565.42 501.026 1569.01V1572.32H469.598L458.847 1570.66V1572.32H450.576Z" fill="#191847"/>
<path fill-rule="evenodd" clip-rule="evenodd" d="M546.513 1572.32L547.34 1554.95H564.707C572.943 1560.74 583.694 1565.42 596.962 1569.01V1572.32H565.534L554.783 1570.66V1572.32H546.513Z" fill="#191847"/>
<path fill-rule="evenodd" clip-rule="evenodd" d="M566.659 1361.1L591.624 1382.27C598.627 1384.69 604.423 1387.5 609.011 1390.7C610.07 1391.81 611.292 1394 606.625 1393.31C601.959 1392.62 597.02 1392.11 596.261 1393.66C595.502 1395.22 598.207 1397.33 596.747 1399.39C595.774 1400.77 591.905 1396.88 585.14 1387.7L559.836 1375.07L566.659 1361.1ZM453.61 1351.94L468.258 1354.07C452.535 1388.18 444.105 1406.23 442.969 1408.19C440.414 1412.62 443.419 1420.34 444.594 1424.43C438.657 1426.14 440.553 1416.97 433.047 1419.26C426.195 1421.34 420.541 1426.08 413.755 1420.45C412.92 1419.76 412.217 1417.49 414.869 1416.17C421.476 1412.89 431.176 1406.88 432.684 1404.66C434.74 1401.64 441.715 1384.07 453.61 1351.94Z" fill="#B28B67"/>
<path fill-rule="evenodd" clip-rule="evenodd" d="M514.834 1292.23L523.91 1289.22C536.223 1319.98 554.585 1349.74 585.266 1374.88L577.679 1387.97C550.715 1372.08 525.191 1359.75 514.834 1335.91C511.357 1327.91 514.55 1301.79 514.834 1292.23Z" fill="#C5CFD6"/>
<path fill-rule="evenodd" clip-rule="evenodd" d="M483.658 1378.79C509.659 1381.55 530.124 1381.55 545.054 1378.79C546.904 1378.45 547.195 1375.35 546.338 1373.25C532.979 1340.52 523.819 1311.96 523.819 1289.22C521.368 1290.46 517.078 1290.65 510.95 1289.78C494.481 1313.21 486.91 1340.09 483.658 1378.79Z" fill="#323337"/>
<path fill-rule="evenodd" clip-rule="evenodd" d="M506.856 1287.82H513.72C515.318 1297.22 520.358 1424.49 535.919 1466.13H451.723C453.548 1427.99 467.947 1382.17 482.533 1343.83C469.635 1355.63 458.394 1375.63 448.809 1403.83L433.038 1399.78C444.764 1349.25 468.873 1312.11 505.365 1288.36C505.444 1288.18 505.522 1288 505.601 1287.82H506.208C506.432 1287.67 506.656 1287.53 506.88 1287.39L506.856 1287.82Z" fill="#DDE3E9"/>
</g>
<defs>
<linearGradient id="paint0_linear_727_167" x1="221" y1="400" x2="221" y2="9.73499e-07" gradientUnits="userSpaceOnUse">
<stop stop-color="#183E43"/>
<stop offset="1" stop-color="#183E43" stop-opacity="0.3"/>
</linearGradient>
<linearGradient id="paint1_linear_727_167" x1="515" y1="595.5" x2="515" y2="947" gradientUnits="userSpaceOnUse">
<stop stop-color="#183E43"/>
<stop offset="1" stop-color="#183E43" stop-opacity="0.3"/>
</linearGradient>
<linearGradient id="paint2_linear_727_167" x1="65" y1="1067" x2="65" y2="1467" gradientUnits="userSpaceOnUse">
<stop stop-color="#183E43"/>
<stop offset="1" stop-color="#183E43" stop-opacity="0"/>
</linearGradient>
<linearGradient id="paint3_linear_727_167" x1="225" y1="860" x2="225" y2="1260" gradientUnits="userSpaceOnUse">
<stop offset="0.357756" stop-color="#183E43"/>
<stop offset="1" stop-color="#183E43" stop-opacity="0"/>
</linearGradient>
<linearGradient id="paint4_linear_727_167" x1="385" y1="1007" x2="385" y2="1407" gradientUnits="userSpaceOnUse">
<stop offset="0.127004" stop-color="#183E43"/>
<stop offset="0.849517" stop-color="#183E43" stop-opacity="0"/>
</linearGradient>
<linearGradient id="paint5_linear_727_167" x1="545" y1="1175" x2="545" y2="1575" gradientUnits="userSpaceOnUse">
<stop offset="0.132484" stop-color="#183E43"/>
<stop offset="0.782447" stop-color="#183E43" stop-opacity="0"/>
</linearGradient>
<clipPath id="clip0_727_167">
<rect y="207" width="130" height="400" rx="65" fill="white"/>
</clipPath>
<clipPath id="clip1_727_167">
<rect x="156" width="130" height="400" rx="65" fill="white"/>
</clipPath>
<clipPath id="clip2_727_167">
<rect x="450" y="547" width="130" height="400" rx="65" transform="rotate(-180 450 547)" fill="white"/>
</clipPath>
<clipPath id="clip3_727_167">
<rect x="480" y="315" width="130" height="400" rx="65" fill="white"/>
</clipPath>
<clipPath id="clip4_727_167">
<rect y="637" width="130" height="400" rx="65" fill="white"/>
</clipPath>
<clipPath id="clip5_727_167">
<rect x="160" y="430" width="130" height="400" rx="65" fill="white"/>
</clipPath>
<clipPath id="clip6_727_167">
<rect x="320" y="577" width="130" height="400" rx="65" fill="white"/>
</clipPath>
<clipPath id="clip7_727_167">
<rect x="480" y="745" width="130" height="400" rx="65" fill="white"/>
</clipPath>
<clipPath id="clip8_727_167">
<rect y="1067" width="130" height="400" rx="65" fill="white"/>
</clipPath>
<clipPath id="clip9_727_167">
<rect x="160" y="860" width="130" height="400" rx="65" fill="white"/>
</clipPath>
<clipPath id="clip10_727_167">
<rect x="320" y="1007" width="130" height="400" rx="65" fill="white"/>
</clipPath>
<clipPath id="clip11_727_167">
<rect x="480" y="1175" width="130" height="400" rx="65" fill="white"/>
</clipPath>
</defs>
</svg>
