<svg width="1280" height="2317" viewBox="0 0 1280 2317" fill="none" xmlns="http://www.w3.org/2000/svg">
<g clip-path="url(#clip0_783_263)">
<rect width="1280" height="2317" fill="white"/>
<g opacity="0.15" filter="url(#filter0_d_783_263)">
<line x1="951.349" y1="595.93" x2="542.033" y2="478.619" stroke="#DEDEDE" stroke-width="5"/>
<line x1="949.927" y1="594.867" x2="809.312" y2="373.315" stroke="#DFC7FF" stroke-width="5"/>
<line x1="541.817" y1="473.884" x2="810.517" y2="369.643" stroke="#DFC7FF" stroke-width="5"/>
<line x1="540.223" y1="476.128" x2="550.383" y2="181.933" stroke="#DFC7FF" stroke-width="5"/>
<line x1="809.497" y1="370.381" x2="990.752" y2="151.573" stroke="#183E43" stroke-width="5"/>
<line x1="812.12" y1="369.575" x2="1248.49" y2="496.403" stroke="#183E43" stroke-width="5"/>
<line x1="811.171" y1="369.488" x2="1490.53" y2="300.947" stroke="#DEDEDE" stroke-width="5"/>
<line x1="1249.7" y1="502.336" x2="1719.05" y2="559.712" stroke="#AFD9FF" stroke-width="5"/>
<line x1="1492.35" y1="305.381" x2="1249.36" y2="500.751" stroke="#AFD9FF" stroke-width="5"/>
<line x1="1577.75" y1="726.764" x2="1246.38" y2="500.867" stroke="#183E43" stroke-width="5"/>
<line x1="1175.41" y1="705.194" x2="1718.1" y2="559.78" stroke="#DEDEDE" stroke-width="5"/>
<line x1="993.397" y1="150.774" x2="1491.5" y2="301.04" stroke="#DFC7FF" stroke-width="5"/>
<line x1="1250.16" y1="499.616" x2="1178.43" y2="708.422" stroke="#DFC7FF" stroke-width="5"/>
<line x1="1178.54" y1="707.92" x2="1151.35" y2="924.136" stroke="#DFC7FF" stroke-width="5"/>
<line x1="953.173" y1="591.299" x2="1177.2" y2="705.382" stroke="#DFC7FF" stroke-width="5"/>
<line x1="951.276" y1="591.146" x2="1247.03" y2="496.422" stroke="#DEDEDE" stroke-width="5"/>
<line x1="949.549" y1="593.297" x2="990.188" y2="152.937" stroke="#DFC7FF" stroke-width="5"/>
<line x1="716.22" y1="930.35" x2="1246.21" y2="496.867" stroke="#DEDEDE" stroke-width="5"/>
<line x1="542.683" y1="478.714" x2="178.76" y2="473.051" stroke="#AFD9FF" stroke-width="5"/>
<line x1="719.015" y1="934.599" x2="1148.8" y2="921.326" stroke="#DFC7FF" stroke-width="5"/>
<line x1="405.885" y1="1269.93" x2="815.009" y2="1160.3" stroke="#AFD9FF" stroke-width="5"/>
<line x1="717.035" y1="935.676" x2="951.27" y2="596.917" stroke="#183E43" stroke-width="5"/>
<line x1="334.549" y1="1055.84" x2="733.62" y2="725.793" stroke="#183E43" stroke-width="5"/>
<line x1="325.438" y1="834.927" x2="734.563" y2="725.303" stroke="#DFC7FF" stroke-width="5"/>
<line x1="181.12" y1="469.621" x2="328.409" y2="836.411" stroke="#DEDEDE" stroke-width="5"/>
<line x1="145.927" y1="750.794" x2="327.144" y2="835.076" stroke="#DFC7FF" stroke-width="5"/>
<line x1="14.135" y1="954.467" x2="325.187" y2="835.01" stroke="#AFD9FF" stroke-width="5"/>
<line x1="-127.911" y1="770.892" x2="326.439" y2="834.866" stroke="#DEDEDE" stroke-width="5"/>
<line x1="-146.582" y1="1089.33" x2="13.4286" y2="954.886" stroke="#AFD9FF" stroke-width="5"/>
<line x1="-145.147" y1="1088.75" x2="335.969" y2="1055.27" stroke="#183E43" stroke-width="5"/>
<line x1="-143.394" y1="1089.31" x2="160.233" y2="1336.82" stroke="#DFC7FF" stroke-width="5"/>
<line x1="153.888" y1="1341.32" x2="-249.116" y2="1401.58" stroke="#DFC7FF" stroke-width="5"/>
<line x1="338.256" y1="1059.1" x2="160.767" y2="1340.1" stroke="#DFC7FF" stroke-width="5"/>
<line x1="407.168" y1="1274.76" x2="158.964" y2="1339.97" stroke="#DEDEDE" stroke-width="5"/>
<line x1="403.836" y1="1271.92" x2="333.766" y2="1058.55" stroke="#183E43" stroke-width="5"/>
<line x1="580.541" y1="1348.06" x2="334.24" y2="1059.39" stroke="#183E43" stroke-width="5"/>
<line x1="581.207" y1="1345.68" x2="814.101" y2="1160.76" stroke="#183E43" stroke-width="5"/>
<line x1="585.117" y1="1348.48" x2="516.737" y2="1540.91" stroke="#183E43" stroke-width="5"/>
<line x1="960.806" y1="1493.48" x2="581.55" y2="1348.77" stroke="#183E43" stroke-width="5"/>
<line x1="959.412" y1="1492.16" x2="813.05" y2="1162.53" stroke="#183E43" stroke-width="5"/>
<line x1="1332.99" y1="1429.7" x2="814.523" y2="1164.94" stroke="#DEDEDE" stroke-width="5"/>
<line x1="958.139" y1="1485.29" x2="1104.21" y2="1168.86" stroke="#AFD9FF" stroke-width="5"/>
<line x1="960.02" y1="1483.87" x2="1333.74" y2="1425" stroke="#183E43" stroke-width="5"/>
<line x1="1107.45" y1="1167.61" x2="1603.54" y2="1377.74" stroke="#AFD9FF" stroke-width="5"/>
<line x1="1107.14" y1="1168.57" x2="1335.99" y2="1425.81" stroke="#183E43" stroke-width="5"/>
<line x1="705.489" y1="1573.77" x2="513.984" y2="1542.54" stroke="#183E43" stroke-width="5"/>
<line x1="705.1" y1="1568.93" x2="959.619" y2="1483.97" stroke="#183E43" stroke-width="5"/>
<line x1="584.952" y1="1346.44" x2="708.076" y2="1570.1" stroke="#183E43" stroke-width="5"/>
<line x1="514.054" y1="1539.32" x2="717.68" y2="1842.01" stroke="#AFD9FF" stroke-width="5"/>
<line x1="516.84" y1="1540.55" x2="460.695" y2="1831.59" stroke="#DFC7FF" stroke-width="5"/>
<line x1="284.493" y1="1611.25" x2="303.179" y2="2003.47" stroke="#183E43" stroke-width="5"/>
<line x1="284.889" y1="1620.9" x2="-47.0042" y2="1758.84" stroke="#DFC7FF" stroke-width="5"/>
<line x1="160.572" y1="1338.66" x2="-45.7209" y2="1757.63" stroke="#AFD9FF" stroke-width="5"/>
<line x1="513.149" y1="1542.25" x2="157.095" y2="1339.73" stroke="#DFC7FF" stroke-width="5"/>
<line x1="408.889" y1="1273.17" x2="286.286" y2="1619.42" stroke="#DEDEDE" stroke-width="5"/>
<line x1="582.69" y1="1350.14" x2="165.476" y2="1338.12" stroke="#183E43" stroke-width="5"/>
<line x1="706.96" y1="1569.04" x2="1065.78" y2="1738.57" stroke="#DFC7FF" stroke-width="5"/>
<line x1="708.39" y1="1571.21" x2="718.105" y2="1843.32" stroke="#183E43" stroke-width="5"/>
<line x1="719.647" y1="933.973" x2="408.378" y2="1274.03" stroke="#DEDEDE" stroke-width="5"/>
<line x1="15.7811" y1="954.416" x2="336.887" y2="1055.38" stroke="#183E43" stroke-width="5"/>
<line x1="328.582" y1="837.228" x2="338.636" y2="1057.65" stroke="#183E43" stroke-width="5"/>
<line x1="326.674" y1="834.913" x2="718.389" y2="929.856" stroke="#DEDEDE" stroke-width="5"/>
<line x1="737.702" y1="727.93" x2="720.293" y2="932.498" stroke="#183E43" stroke-width="5"/>
<line x1="950.305" y1="588.698" x2="737.585" y2="733.396" stroke="#183E43" stroke-width="5"/>
<line x1="180.288" y1="468.544" x2="523.002" y2="722.353" stroke="#DEDEDE" stroke-width="5"/>
<line x1="521.553" y1="721.863" x2="735.252" y2="725.218" stroke="#DFC7FF" stroke-width="5"/>
<line x1="528.765" y1="724.923" x2="327.324" y2="839.514" stroke="#AFD9FF" stroke-width="5"/>
<line x1="544.842" y1="477.539" x2="317.378" y2="841.568" stroke="#AFD9FF" stroke-width="5"/>
<line x1="545.213" y1="476.427" x2="524.004" y2="724.574" stroke="#DFC7FF" stroke-width="5"/>
<line x1="544.707" y1="474.695" x2="737.197" y2="726.197" stroke="#AFD9FF" stroke-width="5"/>
<line x1="718.584" y1="934.66" x2="336.922" y2="1060.14" stroke="#DEDEDE" stroke-width="5"/>
<line x1="720.18" y1="933.058" x2="585.141" y2="1348.41" stroke="#AFD9FF" stroke-width="5"/>
<line x1="721.39" y1="936.114" x2="817.956" y2="1161.73" stroke="#183E43" stroke-width="5"/>
<line x1="1150.33" y1="925.856" x2="817.116" y2="1164.75" stroke="#183E43" stroke-width="5"/>
<line x1="1106.42" y1="1172.41" x2="815.595" y2="1165.21" stroke="#183E43" stroke-width="5"/>
<line x1="1151.34" y1="924.249" x2="1108.94" y2="1170.33" stroke="#183E43" stroke-width="5"/>
<line x1="1552.94" y1="1016.45" x2="1147.02" y2="921.444" stroke="#DFC7FF" stroke-width="5"/>
<line x1="1554.33" y1="1016.38" x2="1106.13" y2="1172.68" stroke="#AFD9FF" stroke-width="5"/>
<line x1="1177.63" y1="705.667" x2="1555.08" y2="1012.08" stroke="#DFC7FF" stroke-width="5"/>
<line x1="1146.73" y1="925.104" x2="949.89" y2="594.806" stroke="#183E43" stroke-width="5"/>
<circle cx="717.802" cy="932.287" r="69.7623" transform="rotate(-15 717.802 932.287)" fill="#DEDEDE"/>
<circle cx="158.324" cy="1337.56" r="95.9231" transform="rotate(-15 158.324 1337.56)" fill="#DFC7FF"/>
<circle cx="992.672" cy="153.167" r="95.9231" transform="rotate(-15 992.672 153.167)" fill="#DFC7FF"/>
<circle cx="300.682" cy="2003.59" r="95.9231" transform="rotate(-15 300.682 2003.59)" fill="#183E43"/>
<circle cx="542.722" cy="476.216" r="78.4826" transform="rotate(-15 542.722 476.216)" fill="#AFD9FF"/>
<circle cx="715.604" cy="1843.4" r="78.4826" transform="rotate(-15 715.604 1843.4)" fill="#AFD9FF"/>
<circle cx="952.037" cy="593.523" r="78.4826" transform="rotate(-15 952.037 593.523)" fill="#DEDEDE"/>
<circle cx="-47.9658" cy="1756.53" r="78.4826" transform="rotate(-15 -47.9658 1756.53)" fill="#AFD9FF"/>
<circle cx="336.141" cy="1057.77" r="47.3387" transform="rotate(-15 336.141 1057.77)" fill="#183E43"/>
<circle cx="811.42" cy="371.977" r="47.3387" transform="rotate(-15 811.42 371.977)" fill="#183E43"/>
<circle cx="582.765" cy="1347.64" r="47.3387" transform="rotate(-15 582.765 1347.64)" fill="#AFD9FF"/>
<circle cx="514.387" cy="1540.08" r="103.398" transform="rotate(-15 514.387 1540.08)" fill="#DEDEDE"/>
<circle cx="705.889" cy="1571.3" r="23.6693" transform="rotate(-15 705.889 1571.3)" fill="#DEDEDE"/>
<circle cx="406.532" cy="1272.34" r="23.6693" transform="rotate(-15 406.532 1272.34)" fill="#DEDEDE"/>
<circle cx="521.515" cy="724.36" r="23.6693" transform="rotate(-15 521.515 724.36)" fill="#DFC7FF"/>
<circle cx="552.88" cy="182.018" r="23.6693" transform="rotate(-15 552.88 182.018)" fill="#DEDEDE"/>
<circle cx="144.868" cy="753.06" r="23.6693" transform="rotate(-15 144.868 753.06)" fill="#DFC7FF"/>
<circle cx="283.931" cy="1618.59" r="47.3387" transform="rotate(-15 283.931 1618.59)" fill="#DFC7FF"/>
<circle cx="1148.87" cy="923.826" r="47.3387" transform="rotate(-15 1148.87 923.826)" fill="#DFC7FF"/>
<circle cx="326.087" cy="837.342" r="34.8811" transform="rotate(-15 326.087 837.342)" fill="#AFD9FF"/>
<circle cx="178.797" cy="470.553" r="34.8811" transform="rotate(-15 178.797 470.553)" fill="#DEDEDE"/>
<circle cx="15.031" cy="956.8" r="34.8811" transform="rotate(-15 15.031 956.8)" fill="#AFD9FF"/>
<circle cx="458.238" cy="1831.11" r="34.8811" transform="rotate(-15 458.238 1831.11)" fill="#DFC7FF"/>
<circle cx="1106.48" cy="1169.91" r="34.8811" transform="rotate(-15 1106.48 1169.91)" fill="#AFD9FF"/>
<circle cx="815.658" cy="1162.71" r="34.8811" transform="rotate(-15 815.658 1162.71)" fill="#AFD9FF"/>
<circle cx="1176.06" cy="707.608" r="34.8811" transform="rotate(-15 1176.06 707.608)" fill="#DEDEDE"/>
<circle cx="735.211" cy="727.719" r="34.8811" transform="rotate(-15 735.211 727.719)" fill="#DFC7FF"/>
<circle cx="1064.71" cy="1740.83" r="34.8811" transform="rotate(-15 1064.71 1740.83)" fill="#DFC7FF"/>
<circle cx="1247.79" cy="498.804" r="63.5335" transform="rotate(-15 1247.79 498.804)" fill="#AFD9FF"/>
<circle cx="960.409" cy="1486.34" r="63.5335" transform="rotate(-15 960.409 1486.34)" fill="#183E43"/>
</g>
</g>
<defs>
<filter id="filter0_d_783_263" x="-277.161" y="53.2202" width="2217.2" height="2050.32" filterUnits="userSpaceOnUse" color-interpolation-filters="sRGB">
<feFlood flood-opacity="0" result="BackgroundImageFix"/>
<feColorMatrix in="SourceAlpha" type="matrix" values="0 0 0 0 0 0 0 0 0 0 0 0 0 0 0 0 0 0 127 0" result="hardAlpha"/>
<feOffset/>
<feGaussianBlur stdDeviation="2"/>
<feComposite in2="hardAlpha" operator="out"/>
<feColorMatrix type="matrix" values="0 0 0 0 0 0 0 0 0 0 0 0 0 0 0 0 0 0 0.25 0"/>
<feBlend mode="normal" in2="BackgroundImageFix" result="effect1_dropShadow_783_263"/>
<feBlend mode="normal" in="SourceGraphic" in2="effect1_dropShadow_783_263" result="shape"/>
</filter>
<clipPath id="clip0_783_263">
<rect width="1280" height="2317" fill="white"/>
</clipPath>
</defs>
</svg>
