<svg width="1280" height="3419" viewBox="0 0 1280 3419" fill="none" xmlns="http://www.w3.org/2000/svg">
<g opacity="0.15" filter="url(#filter0_d_727_3)">
<line x1="1102.37" y1="1056.12" x2="499.59" y2="883.364" stroke="#DEDEDE" stroke-width="5"/>
<line x1="1100.95" y1="1055.06" x2="893.871" y2="728.79" stroke="#DFC7FF" stroke-width="5"/>
<line x1="499.375" y1="878.63" x2="895.078" y2="725.12" stroke="#DFC7FF" stroke-width="5"/>
<line x1="497.781" y1="880.875" x2="512.743" y2="447.627" stroke="#DFC7FF" stroke-width="5"/>
<line x1="894.057" y1="725.856" x2="1160.98" y2="403.627" stroke="#183E43" stroke-width="5"/>
<line x1="896.68" y1="725.05" x2="1539.3" y2="911.825" stroke="#183E43" stroke-width="5"/>
<line x1="895.731" y1="724.963" x2="1896.2" y2="624.026" stroke="#DEDEDE" stroke-width="5"/>
<line x1="1163.63" y1="402.829" x2="1897.17" y2="624.12" stroke="#DFC7FF" stroke-width="5"/>
<line x1="1104.2" y1="1051.49" x2="1434.1" y2="1219.5" stroke="#DFC7FF" stroke-width="5"/>
<line x1="1102.3" y1="1051.34" x2="1537.84" y2="911.844" stroke="#DEDEDE" stroke-width="5"/>
<line x1="1100.57" y1="1053.49" x2="1160.42" y2="404.992" stroke="#DFC7FF" stroke-width="5"/>
<line x1="756.531" y1="1550.66" x2="1537.02" y2="912.29" stroke="#DEDEDE" stroke-width="5"/>
<line x1="500.24" y1="883.461" x2="-35.6936" y2="875.121" stroke="#AFD9FF" stroke-width="5"/>
<line x1="759.936" y1="1557.19" x2="1392.86" y2="1537.64" stroke="#DFC7FF" stroke-width="5"/>
<line x1="299.074" y1="2050.97" x2="901.574" y2="1889.53" stroke="#AFD9FF" stroke-width="5"/>
<line x1="757.957" y1="1558.26" x2="1102.9" y2="1059.39" stroke="#183E43" stroke-width="5"/>
<line x1="194.465" y1="1735.46" x2="782.159" y2="1249.41" stroke="#183E43" stroke-width="5"/>
<line x1="180.605" y1="1410.36" x2="783.105" y2="1248.92" stroke="#DFC7FF" stroke-width="5"/>
<line x1="-33.3348" y1="871.69" x2="183.572" y2="1411.84" stroke="#DEDEDE" stroke-width="5"/>
<line x1="-84.5634" y1="1286.39" x2="182.306" y2="1410.51" stroke="#DFC7FF" stroke-width="5"/>
<line x1="-277.717" y1="1586.36" x2="180.356" y2="1410.44" stroke="#AFD9FF" stroke-width="5"/>
<line x1="-487.502" y1="1316.09" x2="181.6" y2="1410.3" stroke="#DEDEDE" stroke-width="5"/>
<line x1="-512.634" y1="1784.19" x2="195.885" y2="1734.89" stroke="#183E43" stroke-width="5"/>
<line x1="198.172" y1="1738.72" x2="-63.2089" y2="2152.53" stroke="#DFC7FF" stroke-width="5"/>
<line x1="300.356" y1="2055.8" x2="-65.1625" y2="2151.84" stroke="#DEDEDE" stroke-width="5"/>
<line x1="296.871" y1="2052.39" x2="193.683" y2="1738.17" stroke="#183E43" stroke-width="5"/>
<line x1="556.872" y1="2164.12" x2="194.156" y2="1739.01" stroke="#183E43" stroke-width="5"/>
<line x1="557.694" y1="2162.31" x2="900.667" y2="1889.98" stroke="#183E43" stroke-width="5"/>
<line x1="561.604" y1="2165.11" x2="460.904" y2="2448.5" stroke="#183E43" stroke-width="5"/>
<line x1="1116.4" y1="2377.95" x2="557.882" y2="2164.84" stroke="#183E43" stroke-width="5"/>
<line x1="1115" y1="2376.62" x2="899.461" y2="1891.18" stroke="#183E43" stroke-width="5"/>
<line x1="1664.61" y1="2284.06" x2="901.084" y2="1894.17" stroke="#DEDEDE" stroke-width="5"/>
<line x1="1113.12" y1="2367.47" x2="1328.23" y2="1901.49" stroke="#AFD9FF" stroke-width="5"/>
<line x1="1115" y1="2366.05" x2="1665.36" y2="2279.36" stroke="#183E43" stroke-width="5"/>
<line x1="740.167" y1="2496.11" x2="458.146" y2="2450.13" stroke="#183E43" stroke-width="5"/>
<line x1="739.777" y1="2491.27" x2="1114.6" y2="2366.15" stroke="#183E43" stroke-width="5"/>
<line x1="561.439" y1="2163.07" x2="742.759" y2="2492.44" stroke="#183E43" stroke-width="5"/>
<line x1="457.078" y1="2447.21" x2="756.949" y2="2892.96" stroke="#AFD9FF" stroke-width="5"/>
<line x1="461.003" y1="2448.13" x2="378.321" y2="2876.73" stroke="#DFC7FF" stroke-width="5"/>
<line x1="118.817" y1="2552.53" x2="146.334" y2="3130.14" stroke="#183E43" stroke-width="5"/>
<line x1="120.129" y1="2565.59" x2="-368.636" y2="2768.73" stroke="#DFC7FF" stroke-width="5"/>
<line x1="457.312" y1="2449.83" x2="-67.0332" y2="2151.59" stroke="#DFC7FF" stroke-width="5"/>
<line x1="302.078" y1="2054.21" x2="121.526" y2="2564.12" stroke="#DEDEDE" stroke-width="5"/>
<line x1="559.177" y1="2166.77" x2="-55.2369" y2="2149.07" stroke="#183E43" stroke-width="5"/>
<line x1="741.637" y1="2491.39" x2="1270.06" y2="2741.05" stroke="#DFC7FF" stroke-width="5"/>
<line x1="743.067" y1="2493.56" x2="757.373" y2="2894.27" stroke="#183E43" stroke-width="5"/>
<line x1="759.958" y1="1554.28" x2="301.565" y2="2055.07" stroke="#DEDEDE" stroke-width="5"/>
<line x1="-276.071" y1="1586.31" x2="196.808" y2="1735" stroke="#183E43" stroke-width="5"/>
<line x1="183.75" y1="1412.66" x2="198.556" y2="1737.27" stroke="#183E43" stroke-width="5"/>
<line x1="181.841" y1="1410.35" x2="758.703" y2="1550.17" stroke="#DEDEDE" stroke-width="5"/>
<line x1="786.243" y1="1251.55" x2="760.605" y2="1552.81" stroke="#183E43" stroke-width="5"/>
<line x1="1099.85" y1="1045.63" x2="786.582" y2="1258.72" stroke="#183E43" stroke-width="5"/>
<line x1="-34.1669" y1="870.612" x2="470.534" y2="1244.39" stroke="#DEDEDE" stroke-width="5"/>
<line x1="469.085" y1="1243.9" x2="783.791" y2="1248.84" stroke="#DFC7FF" stroke-width="5"/>
<line x1="479.142" y1="1246.19" x2="182.488" y2="1414.95" stroke="#AFD9FF" stroke-width="5"/>
<line x1="502.399" y1="882.286" x2="167.424" y2="1418.37" stroke="#AFD9FF" stroke-width="5"/>
<line x1="502.77" y1="881.174" x2="471.537" y2="1246.61" stroke="#DFC7FF" stroke-width="5"/>
<line x1="502.265" y1="879.442" x2="785.737" y2="1249.82" stroke="#AFD9FF" stroke-width="5"/>
<line x1="758.895" y1="1554.97" x2="196.839" y2="1739.76" stroke="#DEDEDE" stroke-width="5"/>
<line x1="760.491" y1="1553.37" x2="561.626" y2="2165.05" stroke="#AFD9FF" stroke-width="5"/>
<line x1="762.311" y1="1558.7" x2="904.519" y2="1890.96" stroke="#183E43" stroke-width="5"/>
<line x1="1394.39" y1="1542.17" x2="903.678" y2="1893.97" stroke="#183E43" stroke-width="5"/>
<line x1="1330.44" y1="1905.04" x2="902.16" y2="1894.44" stroke="#183E43" stroke-width="5"/>
<line x1="1390.79" y1="1541.42" x2="1100.91" y2="1055" stroke="#183E43" stroke-width="5"/>
<circle cx="758.114" cy="1552.6" r="102.736" transform="rotate(-15 758.114 1552.6)" fill="#DEDEDE"/>
<circle cx="-65.7974" cy="2149.42" r="141.262" transform="rotate(-15 -65.7974 2149.42)" fill="#DFC7FF"/>
<circle cx="1162.91" cy="405.222" r="141.262" transform="rotate(-15 1162.91 405.222)" fill="#DFC7FF"/>
<circle cx="143.837" cy="3130.26" r="141.262" transform="rotate(-15 143.837 3130.26)" fill="#183E43"/>
<circle cx="500.279" cy="880.961" r="115.578" transform="rotate(-15 500.279 880.961)" fill="#AFD9FF"/>
<circle cx="754.875" cy="2894.36" r="115.578" transform="rotate(-15 754.875 2894.36)" fill="#AFD9FF"/>
<circle cx="1103.06" cy="1053.72" r="115.578" transform="rotate(-15 1103.06 1053.72)" fill="#DEDEDE"/>
<circle cx="196.058" cy="1737.39" r="69.7136" transform="rotate(-15 196.058 1737.39)" fill="#183E43"/>
<circle cx="895.982" cy="727.451" r="69.7136" transform="rotate(-15 895.982 727.451)" fill="#183E43"/>
<circle cx="559.248" cy="2164.27" r="69.7136" transform="rotate(-15 559.248 2164.27)" fill="#AFD9FF"/>
<circle cx="458.548" cy="2447.66" r="152.269" transform="rotate(-15 458.548 2447.66)" fill="#DEDEDE"/>
<circle cx="740.569" cy="2493.65" r="34.8568" transform="rotate(-15 740.569 2493.65)" fill="#DEDEDE"/>
<circle cx="299.721" cy="2053.38" r="34.8568" transform="rotate(-15 299.721 2053.38)" fill="#DEDEDE"/>
<circle cx="469.046" cy="1246.4" r="34.8568" transform="rotate(-15 469.046 1246.4)" fill="#DFC7FF"/>
<circle cx="515.242" cy="447.713" r="34.8568" transform="rotate(-15 515.242 447.713)" fill="#DEDEDE"/>
<circle cx="119.169" cy="2563.29" r="69.7136" transform="rotate(-15 119.169 2563.29)" fill="#DFC7FF"/>
<circle cx="181.252" cy="1412.78" r="51.3679" transform="rotate(-15 181.252 1412.78)" fill="#AFD9FF"/>
<circle cx="-35.6548" cy="872.621" r="51.3679" transform="rotate(-15 -35.6548 872.621)" fill="#DEDEDE"/>
<circle cx="375.866" cy="2876.26" r="51.3679" transform="rotate(-15 375.866 2876.26)" fill="#DFC7FF"/>
<circle cx="1330.5" cy="1902.54" r="51.3679" transform="rotate(-15 1330.5 1902.54)" fill="#AFD9FF"/>
<circle cx="902.221" cy="1891.94" r="51.3679" transform="rotate(-15 902.221 1891.94)" fill="#AFD9FF"/>
<circle cx="783.751" cy="1251.34" r="51.3679" transform="rotate(-15 783.751 1251.34)" fill="#DFC7FF"/>
<circle cx="1268.99" cy="2743.31" r="51.3679" transform="rotate(-15 1268.99 2743.31)" fill="#DFC7FF"/>
<circle cx="1115.39" cy="2368.52" r="93.563" transform="rotate(-15 1115.39 2368.52)" fill="#183E43"/>
</g>
<defs>
<filter id="filter0_d_727_3" x="-705.239" y="259.925" width="3261.4" height="3015.63" filterUnits="userSpaceOnUse" color-interpolation-filters="sRGB">
<feFlood flood-opacity="0" result="BackgroundImageFix"/>
<feColorMatrix in="SourceAlpha" type="matrix" values="0 0 0 0 0 0 0 0 0 0 0 0 0 0 0 0 0 0 127 0" result="hardAlpha"/>
<feOffset/>
<feGaussianBlur stdDeviation="2"/>
<feComposite in2="hardAlpha" operator="out"/>
<feColorMatrix type="matrix" values="0 0 0 0 0 0 0 0 0 0 0 0 0 0 0 0 0 0 0.25 0"/>
<feBlend mode="normal" in2="BackgroundImageFix" result="effect1_dropShadow_727_3"/>
<feBlend mode="normal" in="SourceGraphic" in2="effect1_dropShadow_727_3" result="shape"/>
</filter>
</defs>
</svg>
