<svg width="1021" height="837" viewBox="0 0 1021 837" fill="none" xmlns="http://www.w3.org/2000/svg">
<path d="M820 23.5H125M820 419.5L220 419.5M981 813.5H221M819 23C928.352 23 1017 111.648 1017 221C1017 330.352 928.352 419 819 419M221 814C111.648 814 23 725.576 23 616.5C23 507.424 111.648 419 221 419" stroke="#005550" stroke-width="7"/>
<circle cx="260" cy="23" r="23" fill="#DFBAC2"/>
<circle cx="260" cy="419" r="23" fill="#DFBAC2"/>
<circle cx="535" cy="814" r="23" fill="#DFBAC2"/>
<circle cx="635" cy="23" r="23" fill="#DFBAC2"/>
<circle cx="635" cy="419" r="23" fill="#DFBAC2"/>
<circle cx="910" cy="814" r="23" fill="#DFBAC2"/>
<circle cx="956" cy="82" r="23" fill="#DFBAC2"/>
<circle cx="23" cy="582" r="23" fill="#DFBAC2"/>
<circle cx="956" cy="357" r="23" fill="#DFBAC2"/>
<circle cx="177" cy="805" r="23" fill="#DFBAC2"/>
<path d="M72.0781 184.25V207H69.0625V184.25H72.0781ZM80 193.453V207H77.0938V190.094H79.8438L80 193.453ZM79.4062 197.906L78.0625 197.859C78.0729 196.703 78.224 195.635 78.5156 194.656C78.8073 193.667 79.2396 192.807 79.8125 192.078C80.3854 191.349 81.099 190.786 81.9531 190.391C82.8073 189.984 83.7969 189.781 84.9219 189.781C85.7135 189.781 86.4427 189.896 87.1094 190.125C87.776 190.344 88.3542 190.693 88.8438 191.172C89.3333 191.651 89.7135 192.266 89.9844 193.016C90.2552 193.766 90.3906 194.672 90.3906 195.734V207H87.5V195.875C87.5 194.99 87.349 194.281 87.0469 193.75C86.7552 193.219 86.3385 192.833 85.7969 192.594C85.2552 192.344 84.6198 192.219 83.8906 192.219C83.0365 192.219 82.3229 192.37 81.75 192.672C81.1771 192.974 80.7188 193.391 80.375 193.922C80.0312 194.453 79.7812 195.062 79.625 195.75C79.4792 196.427 79.4062 197.146 79.4062 197.906ZM90.3594 196.312L88.4219 196.906C88.4323 195.979 88.5833 195.089 88.875 194.234C89.1771 193.38 89.6094 192.62 90.1719 191.953C90.7448 191.286 91.4479 190.76 92.2812 190.375C93.1146 189.979 94.0677 189.781 95.1406 189.781C96.0469 189.781 96.849 189.901 97.5469 190.141C98.2552 190.38 98.849 190.75 99.3281 191.25C99.8177 191.74 100.188 192.37 100.438 193.141C100.688 193.911 100.812 194.828 100.812 195.891V207H97.9062V195.859C97.9062 194.911 97.7552 194.177 97.4531 193.656C97.1615 193.125 96.7448 192.755 96.2031 192.547C95.6719 192.328 95.0365 192.219 94.2969 192.219C93.6615 192.219 93.099 192.328 92.6094 192.547C92.1198 192.766 91.7083 193.068 91.375 193.453C91.0417 193.828 90.7865 194.26 90.6094 194.75C90.4427 195.24 90.3594 195.76 90.3594 196.312ZM108.078 193.344V213.5H105.172V190.094H107.828L108.078 193.344ZM119.469 198.406V198.734C119.469 199.964 119.323 201.104 119.031 202.156C118.74 203.198 118.312 204.104 117.75 204.875C117.198 205.646 116.516 206.245 115.703 206.672C114.891 207.099 113.958 207.312 112.906 207.312C111.833 207.312 110.885 207.135 110.062 206.781C109.24 206.427 108.542 205.911 107.969 205.234C107.396 204.557 106.938 203.745 106.594 202.797C106.26 201.849 106.031 200.781 105.906 199.594V197.844C106.031 196.594 106.266 195.474 106.609 194.484C106.953 193.495 107.406 192.651 107.969 191.953C108.542 191.245 109.234 190.708 110.047 190.344C110.859 189.969 111.797 189.781 112.859 189.781C113.922 189.781 114.865 189.99 115.688 190.406C116.51 190.812 117.203 191.396 117.766 192.156C118.328 192.917 118.75 193.828 119.031 194.891C119.323 195.943 119.469 197.115 119.469 198.406ZM116.562 198.734V198.406C116.562 197.562 116.474 196.771 116.297 196.031C116.12 195.281 115.844 194.625 115.469 194.062C115.104 193.49 114.635 193.042 114.062 192.719C113.49 192.385 112.807 192.219 112.016 192.219C111.286 192.219 110.651 192.344 110.109 192.594C109.578 192.844 109.125 193.182 108.75 193.609C108.375 194.026 108.068 194.505 107.828 195.047C107.599 195.578 107.427 196.13 107.312 196.703V200.75C107.521 201.479 107.812 202.167 108.188 202.812C108.562 203.448 109.062 203.964 109.688 204.359C110.312 204.745 111.099 204.938 112.047 204.938C112.828 204.938 113.5 204.776 114.062 204.453C114.635 204.12 115.104 203.667 115.469 203.094C115.844 202.521 116.12 201.865 116.297 201.125C116.474 200.375 116.562 199.578 116.562 198.734ZM122.391 198.734V198.375C122.391 197.156 122.568 196.026 122.922 194.984C123.276 193.932 123.786 193.021 124.453 192.25C125.12 191.469 125.927 190.865 126.875 190.438C127.823 190 128.885 189.781 130.062 189.781C131.25 189.781 132.318 190 133.266 190.438C134.224 190.865 135.036 191.469 135.703 192.25C136.38 193.021 136.896 193.932 137.25 194.984C137.604 196.026 137.781 197.156 137.781 198.375V198.734C137.781 199.953 137.604 201.083 137.25 202.125C136.896 203.167 136.38 204.078 135.703 204.859C135.036 205.63 134.229 206.234 133.281 206.672C132.344 207.099 131.281 207.312 130.094 207.312C128.906 207.312 127.839 207.099 126.891 206.672C125.943 206.234 125.13 205.63 124.453 204.859C123.786 204.078 123.276 203.167 122.922 202.125C122.568 201.083 122.391 199.953 122.391 198.734ZM125.281 198.375V198.734C125.281 199.578 125.38 200.375 125.578 201.125C125.776 201.865 126.073 202.521 126.469 203.094C126.875 203.667 127.38 204.12 127.984 204.453C128.589 204.776 129.292 204.938 130.094 204.938C130.885 204.938 131.578 204.776 132.172 204.453C132.776 204.12 133.276 203.667 133.672 203.094C134.068 202.521 134.365 201.865 134.562 201.125C134.771 200.375 134.875 199.578 134.875 198.734V198.375C134.875 197.542 134.771 196.755 134.562 196.016C134.365 195.266 134.062 194.604 133.656 194.031C133.26 193.448 132.76 192.99 132.156 192.656C131.562 192.323 130.865 192.156 130.062 192.156C129.271 192.156 128.573 192.323 127.969 192.656C127.375 192.99 126.875 193.448 126.469 194.031C126.073 194.604 125.776 195.266 125.578 196.016C125.38 196.755 125.281 197.542 125.281 198.375ZM144.297 192.75V207H141.406V190.094H144.219L144.297 192.75ZM149.578 190L149.562 192.688C149.323 192.635 149.094 192.604 148.875 192.594C148.667 192.573 148.427 192.562 148.156 192.562C147.49 192.562 146.901 192.667 146.391 192.875C145.88 193.083 145.448 193.375 145.094 193.75C144.74 194.125 144.458 194.573 144.25 195.094C144.052 195.604 143.922 196.167 143.859 196.781L143.047 197.25C143.047 196.229 143.146 195.271 143.344 194.375C143.552 193.479 143.87 192.688 144.297 192C144.724 191.302 145.266 190.76 145.922 190.375C146.589 189.979 147.38 189.781 148.297 189.781C148.505 189.781 148.745 189.807 149.016 189.859C149.286 189.901 149.474 189.948 149.578 190ZM160.109 190.094V192.312H150.969V190.094H160.109ZM154.062 185.984H156.953V202.812C156.953 203.385 157.042 203.818 157.219 204.109C157.396 204.401 157.625 204.594 157.906 204.688C158.188 204.781 158.49 204.828 158.812 204.828C159.052 204.828 159.302 204.807 159.562 204.766C159.833 204.714 160.036 204.672 160.172 204.641L160.188 207C159.958 207.073 159.656 207.141 159.281 207.203C158.917 207.276 158.474 207.312 157.953 207.312C157.245 207.312 156.594 207.172 156 206.891C155.406 206.609 154.932 206.141 154.578 205.484C154.234 204.818 154.062 203.922 154.062 202.797V185.984ZM173.469 204.109V195.406C173.469 194.74 173.333 194.161 173.062 193.672C172.802 193.172 172.406 192.786 171.875 192.516C171.344 192.245 170.688 192.109 169.906 192.109C169.177 192.109 168.536 192.234 167.984 192.484C167.443 192.734 167.016 193.062 166.703 193.469C166.401 193.875 166.25 194.312 166.25 194.781H163.359C163.359 194.177 163.516 193.578 163.828 192.984C164.141 192.391 164.589 191.854 165.172 191.375C165.766 190.885 166.474 190.5 167.297 190.219C168.13 189.927 169.057 189.781 170.078 189.781C171.307 189.781 172.391 189.99 173.328 190.406C174.276 190.823 175.016 191.453 175.547 192.297C176.089 193.13 176.359 194.177 176.359 195.438V203.312C176.359 203.875 176.406 204.474 176.5 205.109C176.604 205.745 176.755 206.292 176.953 206.75V207H173.938C173.792 206.667 173.677 206.224 173.594 205.672C173.51 205.109 173.469 204.589 173.469 204.109ZM173.969 196.75L174 198.781H171.078C170.255 198.781 169.521 198.849 168.875 198.984C168.229 199.109 167.688 199.302 167.25 199.562C166.812 199.823 166.479 200.151 166.25 200.547C166.021 200.932 165.906 201.385 165.906 201.906C165.906 202.438 166.026 202.922 166.266 203.359C166.505 203.797 166.865 204.146 167.344 204.406C167.833 204.656 168.432 204.781 169.141 204.781C170.026 204.781 170.807 204.594 171.484 204.219C172.161 203.844 172.698 203.385 173.094 202.844C173.5 202.302 173.719 201.776 173.75 201.266L174.984 202.656C174.911 203.094 174.714 203.578 174.391 204.109C174.068 204.641 173.635 205.151 173.094 205.641C172.562 206.12 171.927 206.521 171.188 206.844C170.458 207.156 169.635 207.312 168.719 207.312C167.573 207.312 166.568 207.089 165.703 206.641C164.849 206.193 164.182 205.594 163.703 204.844C163.234 204.083 163 203.234 163 202.297C163 201.391 163.177 200.594 163.531 199.906C163.885 199.208 164.396 198.63 165.062 198.172C165.729 197.703 166.531 197.349 167.469 197.109C168.406 196.87 169.453 196.75 170.609 196.75H173.969ZM183.797 193.703V207H180.906V190.094H183.641L183.797 193.703ZM183.109 197.906L181.906 197.859C181.917 196.703 182.089 195.635 182.422 194.656C182.755 193.667 183.224 192.807 183.828 192.078C184.432 191.349 185.151 190.786 185.984 190.391C186.828 189.984 187.76 189.781 188.781 189.781C189.615 189.781 190.365 189.896 191.031 190.125C191.698 190.344 192.266 190.698 192.734 191.188C193.214 191.677 193.578 192.312 193.828 193.094C194.078 193.865 194.203 194.807 194.203 195.922V207H191.297V195.891C191.297 195.005 191.167 194.297 190.906 193.766C190.646 193.224 190.266 192.833 189.766 192.594C189.266 192.344 188.651 192.219 187.922 192.219C187.203 192.219 186.547 192.37 185.953 192.672C185.37 192.974 184.865 193.391 184.438 193.922C184.021 194.453 183.693 195.062 183.453 195.75C183.224 196.427 183.109 197.146 183.109 197.906ZM205.672 190.094V192.312H196.531V190.094H205.672ZM199.625 185.984H202.516V202.812C202.516 203.385 202.604 203.818 202.781 204.109C202.958 204.401 203.188 204.594 203.469 204.688C203.75 204.781 204.052 204.828 204.375 204.828C204.615 204.828 204.865 204.807 205.125 204.766C205.396 204.714 205.599 204.672 205.734 204.641L205.75 207C205.521 207.073 205.219 207.141 204.844 207.203C204.479 207.276 204.036 207.312 203.516 207.312C202.807 207.312 202.156 207.172 201.562 206.891C200.969 206.609 200.495 206.141 200.141 205.484C199.797 204.818 199.625 203.922 199.625 202.797V185.984Z" fill="#183E43"/>
<path d="M108.109 245H103.359L103.391 242.547H108.109C109.734 242.547 111.089 242.208 112.172 241.531C113.255 240.844 114.068 239.885 114.609 238.656C115.161 237.417 115.438 235.969 115.438 234.312V232.922C115.438 231.62 115.281 230.464 114.969 229.453C114.656 228.432 114.198 227.573 113.594 226.875C112.99 226.167 112.25 225.63 111.375 225.266C110.51 224.901 109.516 224.719 108.391 224.719H103.266V222.25H108.391C109.88 222.25 111.24 222.5 112.469 223C113.698 223.49 114.755 224.203 115.641 225.141C116.536 226.068 117.224 227.193 117.703 228.516C118.182 229.828 118.422 231.307 118.422 232.953V234.312C118.422 235.958 118.182 237.443 117.703 238.766C117.224 240.078 116.531 241.198 115.625 242.125C114.729 243.052 113.646 243.766 112.375 244.266C111.115 244.755 109.693 245 108.109 245ZM104.969 222.25V245H101.953V222.25H104.969ZM132.484 242.109V233.406C132.484 232.74 132.349 232.161 132.078 231.672C131.818 231.172 131.422 230.786 130.891 230.516C130.359 230.245 129.703 230.109 128.922 230.109C128.193 230.109 127.552 230.234 127 230.484C126.458 230.734 126.031 231.062 125.719 231.469C125.417 231.875 125.266 232.312 125.266 232.781H122.375C122.375 232.177 122.531 231.578 122.844 230.984C123.156 230.391 123.604 229.854 124.188 229.375C124.781 228.885 125.49 228.5 126.312 228.219C127.146 227.927 128.073 227.781 129.094 227.781C130.323 227.781 131.406 227.99 132.344 228.406C133.292 228.823 134.031 229.453 134.562 230.297C135.104 231.13 135.375 232.177 135.375 233.438V241.312C135.375 241.875 135.422 242.474 135.516 243.109C135.62 243.745 135.771 244.292 135.969 244.75V245H132.953C132.807 244.667 132.693 244.224 132.609 243.672C132.526 243.109 132.484 242.589 132.484 242.109ZM132.984 234.75L133.016 236.781H130.094C129.271 236.781 128.536 236.849 127.891 236.984C127.245 237.109 126.703 237.302 126.266 237.562C125.828 237.823 125.495 238.151 125.266 238.547C125.036 238.932 124.922 239.385 124.922 239.906C124.922 240.438 125.042 240.922 125.281 241.359C125.521 241.797 125.88 242.146 126.359 242.406C126.849 242.656 127.448 242.781 128.156 242.781C129.042 242.781 129.823 242.594 130.5 242.219C131.177 241.844 131.714 241.385 132.109 240.844C132.516 240.302 132.734 239.776 132.766 239.266L134 240.656C133.927 241.094 133.729 241.578 133.406 242.109C133.083 242.641 132.651 243.151 132.109 243.641C131.578 244.12 130.943 244.521 130.203 244.844C129.474 245.156 128.651 245.312 127.734 245.312C126.589 245.312 125.583 245.089 124.719 244.641C123.865 244.193 123.198 243.594 122.719 242.844C122.25 242.083 122.016 241.234 122.016 240.297C122.016 239.391 122.193 238.594 122.547 237.906C122.901 237.208 123.411 236.63 124.078 236.172C124.745 235.703 125.547 235.349 126.484 235.109C127.422 234.87 128.469 234.75 129.625 234.75H132.984ZM147 228.094V230.312H137.859V228.094H147ZM140.953 223.984H143.844V240.812C143.844 241.385 143.932 241.818 144.109 242.109C144.286 242.401 144.516 242.594 144.797 242.688C145.078 242.781 145.38 242.828 145.703 242.828C145.943 242.828 146.193 242.807 146.453 242.766C146.724 242.714 146.927 242.672 147.062 242.641L147.078 245C146.849 245.073 146.547 245.141 146.172 245.203C145.807 245.276 145.365 245.312 144.844 245.312C144.135 245.312 143.484 245.172 142.891 244.891C142.297 244.609 141.823 244.141 141.469 243.484C141.125 242.818 140.953 241.922 140.953 240.797V223.984ZM157.406 245.312C156.229 245.312 155.161 245.115 154.203 244.719C153.255 244.312 152.438 243.745 151.75 243.016C151.073 242.286 150.552 241.422 150.188 240.422C149.823 239.422 149.641 238.328 149.641 237.141V236.484C149.641 235.109 149.844 233.885 150.25 232.812C150.656 231.729 151.208 230.812 151.906 230.062C152.604 229.312 153.396 228.745 154.281 228.359C155.167 227.974 156.083 227.781 157.031 227.781C158.24 227.781 159.281 227.99 160.156 228.406C161.042 228.823 161.766 229.406 162.328 230.156C162.891 230.896 163.307 231.771 163.578 232.781C163.849 233.781 163.984 234.875 163.984 236.062V237.359H151.359V235H161.094V234.781C161.052 234.031 160.896 233.302 160.625 232.594C160.365 231.885 159.948 231.302 159.375 230.844C158.802 230.385 158.021 230.156 157.031 230.156C156.375 230.156 155.771 230.297 155.219 230.578C154.667 230.849 154.193 231.255 153.797 231.797C153.401 232.339 153.094 233 152.875 233.781C152.656 234.562 152.547 235.464 152.547 236.484V237.141C152.547 237.943 152.656 238.698 152.875 239.406C153.104 240.104 153.432 240.719 153.859 241.25C154.297 241.781 154.823 242.198 155.438 242.5C156.062 242.802 156.771 242.953 157.562 242.953C158.583 242.953 159.448 242.745 160.156 242.328C160.865 241.911 161.484 241.354 162.016 240.656L163.766 242.047C163.401 242.599 162.938 243.125 162.375 243.625C161.812 244.125 161.12 244.531 160.297 244.844C159.484 245.156 158.521 245.312 157.406 245.312ZM177.203 240.516C177.203 240.099 177.109 239.714 176.922 239.359C176.745 238.995 176.375 238.667 175.812 238.375C175.26 238.073 174.427 237.812 173.312 237.594C172.375 237.396 171.526 237.161 170.766 236.891C170.016 236.62 169.375 236.292 168.844 235.906C168.323 235.521 167.922 235.068 167.641 234.547C167.359 234.026 167.219 233.417 167.219 232.719C167.219 232.052 167.365 231.422 167.656 230.828C167.958 230.234 168.38 229.708 168.922 229.25C169.474 228.792 170.135 228.432 170.906 228.172C171.677 227.911 172.536 227.781 173.484 227.781C174.839 227.781 175.995 228.021 176.953 228.5C177.911 228.979 178.646 229.62 179.156 230.422C179.667 231.214 179.922 232.094 179.922 233.062H177.031C177.031 232.594 176.891 232.141 176.609 231.703C176.339 231.255 175.938 230.885 175.406 230.594C174.885 230.302 174.245 230.156 173.484 230.156C172.682 230.156 172.031 230.281 171.531 230.531C171.042 230.771 170.682 231.078 170.453 231.453C170.234 231.828 170.125 232.224 170.125 232.641C170.125 232.953 170.177 233.234 170.281 233.484C170.396 233.724 170.594 233.948 170.875 234.156C171.156 234.354 171.552 234.542 172.062 234.719C172.573 234.896 173.224 235.073 174.016 235.25C175.401 235.562 176.542 235.938 177.438 236.375C178.333 236.812 179 237.349 179.438 237.984C179.875 238.62 180.094 239.391 180.094 240.297C180.094 241.036 179.938 241.714 179.625 242.328C179.323 242.943 178.88 243.474 178.297 243.922C177.724 244.359 177.036 244.703 176.234 244.953C175.443 245.193 174.552 245.312 173.562 245.312C172.073 245.312 170.812 245.047 169.781 244.516C168.75 243.984 167.969 243.297 167.438 242.453C166.906 241.609 166.641 240.719 166.641 239.781H169.547C169.589 240.573 169.818 241.203 170.234 241.672C170.651 242.13 171.161 242.458 171.766 242.656C172.37 242.844 172.969 242.938 173.562 242.938C174.354 242.938 175.016 242.833 175.547 242.625C176.089 242.417 176.5 242.13 176.781 241.766C177.062 241.401 177.203 240.984 177.203 240.516Z" fill="#DFBAC2"/>
<rect x="24" y="156" width="233" height="118" stroke="#005550" stroke-width="2"/>
</svg>
